<svg width="1015" height="75" viewBox="0 0 1015 75" fill="none" xmlns="http://www.w3.org/2000/svg">
<path d="M27.0738 108L0.373828 2.99999H20.7738L42.9738 95.25H45.0738L67.2738 2.99999H87.6738L60.9738 108H27.0738ZM100.898 108V33.6H119.798V108H100.898ZM110.348 24.9C106.948 24.9 104.048 23.8 101.648 21.6C99.3484 19.4 98.1984 16.5 98.1984 12.9C98.1984 9.3 99.3484 6.4 101.648 4.2C104.048 1.99999 106.948 0.899993 110.348 0.899993C113.848 0.899993 116.748 1.99999 119.048 4.2C121.348 6.4 122.498 9.3 122.498 12.9C122.498 16.5 121.348 19.4 119.048 21.6C116.748 23.8 113.848 24.9 110.348 24.9ZM140.742 138V33.6H159.342V42.6H162.042C163.742 39.7 166.392 37.15 169.992 34.95C173.592 32.65 178.742 31.5 185.442 31.5C191.442 31.5 196.992 33 202.092 36C207.192 38.9 211.292 43.2 214.392 48.9C217.492 54.6 219.042 61.5 219.042 69.6V72C219.042 80.1 217.492 87 214.392 92.7C211.292 98.4 207.192 102.75 202.092 105.75C196.992 108.65 191.442 110.1 185.442 110.1C180.942 110.1 177.142 109.55 174.042 108.45C171.042 107.45 168.592 106.15 166.692 104.55C164.892 102.85 163.442 101.15 162.342 99.45H159.642V138H140.742ZM179.742 93.6C185.642 93.6 190.492 91.75 194.292 88.05C198.192 84.25 200.142 78.75 200.142 71.55V70.05C200.142 62.85 198.192 57.4 194.292 53.7C190.392 49.9 185.542 48 179.742 48C173.942 48 169.092 49.9 165.192 53.7C161.292 57.4 159.342 62.85 159.342 70.05V71.55C159.342 78.75 161.292 84.25 165.192 88.05C169.092 91.75 173.942 93.6 179.742 93.6ZM270.296 110.1C262.896 110.1 256.346 108.55 250.646 105.45C245.046 102.25 240.646 97.8 237.446 92.1C234.346 86.3 232.796 79.5 232.796 71.7V69.9C232.796 62.1 234.346 55.35 237.446 49.65C240.546 43.85 244.896 39.4 250.496 36.3C256.096 33.1 262.596 31.5 269.996 31.5C277.296 31.5 283.646 33.15 289.046 36.45C294.446 39.65 298.646 44.15 301.646 49.95C304.646 55.65 306.146 62.3 306.146 69.9V76.35H251.996C252.196 81.45 254.096 85.6 257.696 88.8C261.296 92 265.696 93.6 270.896 93.6C276.196 93.6 280.096 92.45 282.596 90.15C285.096 87.85 286.996 85.3 288.296 82.5L303.746 90.6C302.346 93.2 300.296 96.05 297.596 99.15C294.996 102.15 291.496 104.75 287.096 106.95C282.696 109.05 277.096 110.1 270.296 110.1ZM252.146 62.25H286.946C286.546 57.95 284.796 54.5 281.696 51.9C278.696 49.3 274.746 48 269.846 48C264.746 48 260.696 49.3 257.696 51.9C254.696 54.5 252.846 57.95 252.146 62.25ZM322.969 108V33.6H341.569V42H344.269C345.369 39 347.169 36.8 349.669 35.4C352.269 34 355.269 33.3 358.669 33.3H367.669V50.1H358.369C353.569 50.1 349.619 51.4 346.519 54C343.419 56.5 341.869 60.4 341.869 65.7V108H322.969ZM419.927 108V2.99999H457.577L478.427 94.5H481.127V2.99999H500.627V108H462.977L442.127 16.5H439.427V108H419.927ZM554.916 110.1C547.516 110.1 540.966 108.55 535.266 105.45C529.666 102.25 525.266 97.8 522.066 92.1C518.966 86.3 517.416 79.5 517.416 71.7V69.9C517.416 62.1 518.966 55.35 522.066 49.65C525.166 43.85 529.516 39.4 535.116 36.3C540.716 33.1 547.216 31.5 554.616 31.5C561.916 31.5 568.266 33.15 573.666 36.45C579.066 39.65 583.266 44.15 586.266 49.95C589.266 55.65 590.766 62.3 590.766 69.9V76.35H536.616C536.816 81.45 538.716 85.6 542.316 88.8C545.916 92 550.316 93.6 555.516 93.6C560.816 93.6 564.716 92.45 567.216 90.15C569.716 87.85 571.616 85.3 572.916 82.5L588.366 90.6C586.966 93.2 584.916 96.05 582.216 99.15C579.616 102.15 576.116 104.75 571.716 106.95C567.316 109.05 561.716 110.1 554.916 110.1ZM536.766 62.25H571.566C571.166 57.95 569.416 54.5 566.316 51.9C563.316 49.3 559.366 48 554.466 48C549.366 48 545.316 49.3 542.316 51.9C539.316 54.5 537.466 57.95 536.766 62.25ZM633.598 108C628.698 108 624.698 106.5 621.598 103.5C618.598 100.4 617.098 96.3 617.098 91.2V49.2H598.498V33.6H617.098V10.5H635.998V33.6H656.398V49.2H635.998V87.9C635.998 90.9 637.398 92.4 640.198 92.4H654.598V108H633.598ZM679.506 108L669.006 33.6H687.756L694.356 95.25H697.056L706.656 33.6H736.956L746.556 95.25H749.256L755.856 33.6H774.606L764.106 108H732.756L723.156 46.35H720.456L710.856 108H679.506ZM826.24 110.1C818.84 110.1 812.19 108.6 806.29 105.6C800.39 102.6 795.74 98.25 792.34 92.55C788.94 86.85 787.24 80 787.24 72V69.6C787.24 61.6 788.94 54.75 792.34 49.05C795.74 43.35 800.39 39 806.29 36C812.19 33 818.84 31.5 826.24 31.5C833.64 31.5 840.29 33 846.19 36C852.09 39 856.74 43.35 860.14 49.05C863.54 54.75 865.24 61.6 865.24 69.6V72C865.24 80 863.54 86.85 860.14 92.55C856.74 98.25 852.09 102.6 846.19 105.6C840.29 108.6 833.64 110.1 826.24 110.1ZM826.24 93.3C832.04 93.3 836.84 91.45 840.64 87.75C844.44 83.95 846.34 78.55 846.34 71.55V70.05C846.34 63.05 844.44 57.7 840.64 54C836.94 50.2 832.14 48.3 826.24 48.3C820.44 48.3 815.64 50.2 811.84 54C808.04 57.7 806.14 63.05 806.14 70.05V71.55C806.14 78.55 808.04 83.95 811.84 87.75C815.64 91.45 820.44 93.3 826.24 93.3ZM882.686 108V33.6H901.286V42H903.986C905.086 39 906.886 36.8 909.386 35.4C911.986 34 914.986 33.3 918.386 33.3H927.386V50.1H918.086C913.286 50.1 909.336 51.4 906.236 54C903.136 56.5 901.586 60.4 901.586 65.7V108H882.686ZM942.158 108V2.99999H961.058V61.05H963.758L988.358 33.6H1012.96L978.608 69.6L1014.16 108H989.858L963.758 78.45H961.058V108H942.158Z" fill="white"/>
</svg>
