<svg width="1278" height="868" viewBox="0 0 1278 868" fill="none" xmlns="http://www.w3.org/2000/svg">
<g clip-path="url(#clip0_267_1048)">
<g opacity="0.2">
<line x1="-50.6172" y1="624.998" x2="1460.96" y2="624.998" stroke="#454444" stroke-opacity="0.77" stroke-width="1.2607"/>
<line x1="-50.6172" y1="302.259" x2="1460.96" y2="302.259" stroke="#454444" stroke-opacity="0.77" stroke-width="1.2607"/>
<line x1="-50.6172" y1="463.627" x2="1460.96" y2="463.627" stroke="#454444" stroke-opacity="0.77" stroke-width="1.2607"/>
<line x1="-50.6172" y1="786.365" x2="1460.96" y2="786.365" stroke="#454444" stroke-opacity="0.77" stroke-width="1.2607"/>
<line x1="-50.6172" y1="140.889" x2="1460.96" y2="140.889" stroke="#454444" stroke-opacity="0.77" stroke-width="1.2607"/>
<line x1="-50.6172" y1="544.313" x2="1460.96" y2="544.312" stroke="#454444" stroke-opacity="0.77" stroke-width="1.2607"/>
<line x1="-50.6172" y1="867.05" x2="1460.96" y2="867.05" stroke="#454444" stroke-opacity="0.77" stroke-width="1.2607"/>
<line x1="-50.6172" y1="221.574" x2="1460.96" y2="221.574" stroke="#454444" stroke-opacity="0.77" stroke-width="1.2607"/>
<line x1="-50.6172" y1="382.942" x2="1460.96" y2="382.942" stroke="#454444" stroke-opacity="0.77" stroke-width="1.2607"/>
<line x1="-50.6172" y1="705.683" x2="1460.96" y2="705.683" stroke="#454444" stroke-opacity="0.77" stroke-width="1.2607"/>
<line x1="-50.6172" y1="60.2041" x2="1460.96" y2="60.2041" stroke="#454444" stroke-opacity="0.77" stroke-width="1.2607"/>
<line x1="642.139" y1="-48.8452" x2="642.139" y2="1118.56" stroke="#454444" stroke-opacity="0.77" stroke-width="1.2607"/>
<line x1="319.398" y1="-48.8452" x2="319.398" y2="1118.56" stroke="#454444" stroke-opacity="0.77" stroke-width="1.2607"/>
<line x1="964.875" y1="-48.8452" x2="964.875" y2="1118.56" stroke="#454444" stroke-opacity="0.77" stroke-width="1.2607"/>
<line x1="158.028" y1="-48.8452" x2="158.028" y2="1118.56" stroke="#454444" stroke-opacity="0.77" stroke-width="1.2607"/>
<line x1="803.504" y1="-48.8452" x2="803.504" y2="1118.56" stroke="#454444" stroke-opacity="0.77" stroke-width="1.2607"/>
<line x1="480.769" y1="-48.8452" x2="480.768" y2="1118.56" stroke="#454444" stroke-opacity="0.77" stroke-width="1.2607"/>
<line x1="1126.25" y1="-48.8452" x2="1126.24" y2="1118.56" stroke="#454444" stroke-opacity="0.77" stroke-width="1.2607"/>
<line x1="77.3457" y1="-48.8452" x2="77.3456" y2="1118.56" stroke="#454444" stroke-opacity="0.77" stroke-width="1.2607"/>
<line x1="722.822" y1="-48.8452" x2="722.822" y2="1118.56" stroke="#454444" stroke-opacity="0.77" stroke-width="1.2607"/>
<line x1="400.082" y1="-48.8452" x2="400.081" y2="1118.56" stroke="#454444" stroke-opacity="0.77" stroke-width="1.2607"/>
<line x1="1045.56" y1="-48.8452" x2="1045.56" y2="1118.56" stroke="#454444" stroke-opacity="0.77" stroke-width="1.2607"/>
<line x1="238.716" y1="-48.8452" x2="238.716" y2="1118.56" stroke="#454444" stroke-opacity="0.77" stroke-width="1.2607"/>
<line x1="884.192" y1="-48.8452" x2="884.192" y2="1118.56" stroke="#454444" stroke-opacity="0.77" stroke-width="1.2607"/>
<line x1="561.452" y1="-48.8452" x2="561.452" y2="1118.56" stroke="#454444" stroke-opacity="0.77" stroke-width="1.2607"/>
<line x1="1206.93" y1="-48.8452" x2="1206.93" y2="1118.56" stroke="#454444" stroke-opacity="0.77" stroke-width="1.2607"/>
</g>
<g opacity="0.5">
<rect x="803.564" y="786.309" width="80.2262" height="80.2262" fill="#949494" fill-opacity="0.1"/>
<rect x="400.141" y="786.309" width="80.2262" height="80.2262" fill="#727272" fill-opacity="0.09"/>
<rect x="1126.76" y="222.433" width="80.2262" height="79.0801" fill="#666666" fill-opacity="0.1"/>
<rect x="480.368" y="464.207" width="80.2262" height="79.0801" fill="#585858" fill-opacity="0.1"/>
<rect x="1045.39" y="302.659" width="80.2262" height="79.0801" fill="#666666" fill-opacity="0.1"/>
<rect x="399.995" y="222.433" width="80.2262" height="79.0801" fill="#585858" fill-opacity="0.1"/>
<rect x="1045.39" y="222.433" width="80.2262" height="79.0801" fill="#666666" fill-opacity="0.1"/>
<rect x="400" y="543" width="80.2262" height="79.0801" fill="#585858" fill-opacity="0.1"/>
<rect x="319.915" y="786.309" width="80.2262" height="80.2262" fill="#727272" fill-opacity="0.09"/>
<rect x="319.915" y="866.535" width="80.2262" height="81.3723" fill="#727272" fill-opacity="0.09"/>
<rect x="158.316" y="706.083" width="80.2262" height="80.2262" fill="#727272" fill-opacity="0.09"/>
<rect x="965.162" y="60.8345" width="80.2262" height="80.2262" fill="#585858" fill-opacity="0.1"/>
<rect x="884.059" y="-19.8525" width="80.2262" height="79.5062" fill="#585858" fill-opacity="0.1"/>
<rect x="884.059" y="60.4053" width="80.2262" height="80.0285" fill="#585858" fill-opacity="0.1"/>
<rect x="158.315" y="139.915" width="81.3723" height="82.5184" fill="#727272" fill-opacity="0.09"/>
<rect x="76.9434" y="59.6885" width="81.3723" height="80.2262" fill="#727272" fill-opacity="0.09"/>
<rect x="-3.28271" y="60.8345" width="81.3723" height="80.2262" fill="#727272" fill-opacity="0.09"/>
<rect x="76.9434" y="139.915" width="81.3723" height="82.5184" fill="#727272" fill-opacity="0.09"/>
<rect x="400.14" y="-20.5376" width="81.3723" height="80.2262" fill="#666666" fill-opacity="0.1"/>
<rect x="158.315" y="301.513" width="80.2262" height="81.3723" fill="#727272" fill-opacity="0.09"/>
<rect x="1126.76" y="706.083" width="80.2262" height="80.2262" fill="#585858" fill-opacity="0.1"/>
<rect x="1206.99" y="786.309" width="80.2262" height="80.2262" fill="#585858" fill-opacity="0.1"/>
</g>
</g>
<defs>
<clipPath id="clip0_267_1048">
<rect width="1278" height="868" fill="white"/>
</clipPath>
</defs>
</svg>
