<svg width="1037" height="1058" viewBox="0 0 1037 1058" fill="none" xmlns="http://www.w3.org/2000/svg">
<g opacity="0.05">
<circle cx="680.469" cy="631.452" r="126.855" transform="rotate(-112.297 680.469 631.452)" stroke="white" stroke-width="0.918127"/>
<circle cx="680.248" cy="631.981" r="109.42" transform="rotate(-112.297 680.248 631.981)" stroke="white" stroke-width="0.918127"/>
<circle cx="680.469" cy="631.452" r="91.1743" transform="rotate(-112.297 680.469 631.452)" stroke="white" stroke-width="0.918127"/>
<circle cx="680.248" cy="631.982" r="74.5505" transform="rotate(-112.297 680.248 631.982)" stroke="white" stroke-width="0.918127"/>
<circle cx="680.248" cy="631.982" r="58.3322" transform="rotate(-112.297 680.248 631.982)" stroke="white" stroke-width="0.918127"/>
<circle cx="680.469" cy="631.452" r="42.5194" transform="rotate(-112.297 680.469 631.452)" stroke="white" stroke-width="0.918127"/>
<circle cx="680.248" cy="631.982" r="146.722" transform="rotate(-112.297 680.248 631.982)" stroke="white" stroke-width="0.918127"/>
</g>
<ellipse opacity="0.05" cx="679.978" cy="632.213" rx="148.648" ry="147.138" transform="rotate(-177.713 679.978 632.213)" fill="url(#paint0_linear_101_83)"/>
<g opacity="0.1">
<circle cx="532.019" cy="431.703" r="126.855" stroke="white" stroke-width="0.918127"/>
<circle cx="531.614" cy="431.297" r="109.42" stroke="white" stroke-width="0.918127"/>
<circle cx="532.019" cy="431.703" r="91.1743" stroke="white" stroke-width="0.918127"/>
<circle cx="531.614" cy="431.298" r="74.5505" stroke="white" stroke-width="0.918127"/>
<circle cx="531.614" cy="431.298" r="58.3322" stroke="white" stroke-width="0.918127"/>
<circle cx="532.019" cy="431.703" r="42.5194" stroke="white" stroke-width="0.918127"/>
<circle cx="531.614" cy="431.297" r="146.722" stroke="white" stroke-width="0.918127"/>
<g filter="url(#filter0_f_101_83)">
<ellipse cx="553.368" cy="529.058" rx="231.368" ry="207.497" fill="#7F5EE3" fill-opacity="0.6"/>
</g>
</g>
<g opacity="0.05">
<circle cx="720.406" cy="495.878" r="126.855" transform="rotate(-112.297 720.406 495.878)" stroke="white" stroke-width="0.918127"/>
<circle cx="720.185" cy="496.407" r="109.42" transform="rotate(-112.297 720.185 496.407)" stroke="white" stroke-width="0.918127"/>
<circle cx="720.406" cy="495.878" r="91.1743" transform="rotate(-112.297 720.406 495.878)" stroke="white" stroke-width="0.918127"/>
<circle cx="720.185" cy="496.407" r="74.5505" transform="rotate(-112.297 720.185 496.407)" stroke="white" stroke-width="0.918127"/>
<circle cx="720.185" cy="496.407" r="58.3322" transform="rotate(-112.297 720.185 496.407)" stroke="white" stroke-width="0.918127"/>
<circle cx="720.406" cy="495.878" r="42.5194" transform="rotate(-112.297 720.406 495.878)" stroke="white" stroke-width="0.918127"/>
<circle cx="720.185" cy="496.407" r="146.722" transform="rotate(-112.297 720.185 496.407)" stroke="white" stroke-width="0.918127"/>
</g>
<ellipse opacity="0.05" cx="721.484" cy="499.579" rx="149.521" ry="151.725" transform="rotate(161.975 721.484 499.579)" fill="url(#paint1_linear_101_83)"/>
<g opacity="0.05">
<circle cx="620.408" cy="321.418" r="126.855" stroke="white" stroke-width="0.918127"/>
<circle cx="620.003" cy="321.013" r="109.42" stroke="white" stroke-width="0.918127"/>
<circle cx="620.408" cy="321.419" r="91.1743" stroke="white" stroke-width="0.918127"/>
<circle cx="620.002" cy="321.013" r="74.5505" stroke="white" stroke-width="0.918127"/>
<circle cx="620.002" cy="321.013" r="58.3322" stroke="white" stroke-width="0.918127"/>
<circle cx="620.408" cy="321.418" r="42.5194" stroke="white" stroke-width="0.918127"/>
<circle cx="620.002" cy="321.013" r="146.722" stroke="white" stroke-width="0.918127"/>
</g>
<ellipse opacity="0.05" cx="619.772" cy="321.35" rx="148.501" ry="147.217" transform="rotate(24.3502 619.772 321.35)" fill="url(#paint2_linear_101_83)"/>
<defs>
<filter id="filter0_f_101_83" x="0.655457" y="0.21698" width="1105.43" height="1057.68" filterUnits="userSpaceOnUse" color-interpolation-filters="sRGB">
<feFlood flood-opacity="0" result="BackgroundImageFix"/>
<feBlend mode="normal" in="SourceGraphic" in2="BackgroundImageFix" result="shape"/>
<feGaussianBlur stdDeviation="160.672" result="effect1_foregroundBlur_101_83"/>
</filter>
<linearGradient id="paint0_linear_101_83" x1="679.978" y1="485.075" x2="679.978" y2="779.351" gradientUnits="userSpaceOnUse">
<stop offset="0.326923" stop-color="#282047" stop-opacity="0"/>
<stop offset="0.788462" stop-color="#2B224D"/>
</linearGradient>
<linearGradient id="paint1_linear_101_83" x1="721.484" y1="347.854" x2="721.484" y2="651.305" gradientUnits="userSpaceOnUse">
<stop offset="0.293269" stop-color="#282047" stop-opacity="0"/>
<stop offset="0.913462" stop-color="#2B224D"/>
</linearGradient>
<linearGradient id="paint2_linear_101_83" x1="619.772" y1="174.133" x2="619.772" y2="468.566" gradientUnits="userSpaceOnUse">
<stop stop-color="#282047" stop-opacity="0"/>
<stop offset="0.7" stop-color="#2C2350"/>
</linearGradient>
</defs>
</svg>
