<svg viewBox="0 0 12.6667 12.6667" fill="none" xmlns="http://www.w3.org/2000/svg" xmlns:xlink="http://www.w3.org/1999/xlink" x="0" y="0"><path id="Vector_15" d="M2.9529,9.8953h0.7917v-3.562h-0.7917zM8.9221,9.8953h0.7916v-7.52h-0.7916zM5.9375,9.8953h0.7917v-1.979h-0.7917zM5.9375,6.3333h0.7917v-1.583h-0.7917zM1.2793,12.6663c-0.3647,0 -0.6689,-0.122 -0.9128,-0.365c-0.2438,-0.244 -0.366,-0.549 -0.3665,-0.914v-10.108c0,-0.365 0.1222,-0.669 0.3665,-0.913c0.2444,-0.244 0.5487,-0.366 0.9128,-0.366h10.1088c0.3642,0 0.6684,0.122 0.9128,0.366c0.2444,0.245 0.3663,0.549 0.3658,0.913v10.109c0,0.364 -0.122,0.668 -0.3658,0.913c-0.2438,0.244 -0.5484,0.366 -0.9136,0.365zM1.2793,11.8753h10.1088c0.1214,0 0.233,-0.051 0.3349,-0.152c0.1019,-0.102 0.1525,-0.214 0.152,-0.336v-10.108c0,-0.122 -0.0507,-0.234 -0.152,-0.336c-0.1013,-0.102 -0.2132,-0.152 -0.3357,-0.152h-10.108c-0.1219,0 -0.2338,0.051 -0.3356,0.152c-0.1019,0.102 -0.1526,0.214 -0.152,0.336v10.109c0,0.121 0.0506,0.233 0.152,0.335c0.1013,0.102 0.2129,0.152 0.3348,0.152" fill="currentColor" fill-opacity="0.5"/></svg>