<svg viewBox="0 0 15.1667 13.0417" fill="none" xmlns="http://www.w3.org/2000/svg" xmlns:xlink="http://www.w3.org/1999/xlink" x="0" y="0"><path id="Vector_13" d="M13.25,12.542c0.3757,0 0.736,-0.15 1.0017,-0.415c0.2657,-0.266 0.415,-0.626 0.415,-1.002v-7.083c0,-0.376 -0.1493,-0.736 -0.415,-1.002c-0.2657,-0.266 -0.626,-0.415 -1.0017,-0.415h-5.5958c-0.237,0.002 -0.4707,-0.055 -0.6798,-0.166c-0.2092,-0.112 -0.387,-0.274 -0.5173,-0.471l-0.5738,-0.85c-0.129,-0.196 -0.3046,-0.357 -0.511,-0.468c-0.2065,-0.112 -0.4374,-0.17 -0.6719,-0.17h-2.7837c-0.3758,0 -0.7361,0.149 -1.0018,0.415c-0.2657,0.266 -0.4149,0.626 -0.4149,1.002v9.208c0,0.376 0.1492,0.736 0.4149,1.002c0.2657,0.265 0.626,0.415 1.0018,0.415z" stroke="white" stroke-opacity="0.5" stroke-linecap="round" stroke-linejoin="round"/></svg>