<svg viewBox="0 0 15.25 15.25" fill="none" xmlns="http://www.w3.org/2000/svg" xmlns:xlink="http://www.w3.org/1999/xlink" x="0" y="0"><path id="Vector_14" d="M5.25,2.875c0,1.12 0,1.68 -0.3483,2.027c-0.3476,0.348 -0.9065,0.348 -2.0267,0.348c-1.1202,0 -1.6799,0 -2.0267,-0.348c-0.3483,-0.348 -0.3483,-0.907 -0.3483,-2.027c0,-1.12 0,-1.68 0.3483,-2.027c0.3476,-0.348 0.9065,-0.348 2.0267,-0.348c1.1202,0 1.6799,0 2.0267,0.348c0.3483,0.348 0.3483,0.907 0.3483,2.027zM5.25,2.875h2.375M12.375,5.25c-1.1202,0 -1.6799,0 -2.0267,-0.348c-0.3483,-0.348 -0.3483,-0.907 -0.3483,-2.027c0,-1.12 0,-1.68 0.3483,-2.027c0.3476,-0.348 0.9065,-0.348 2.0267,-0.348c1.1202,0 1.6799,0 2.0267,0.348c0.3483,0.348 0.3483,0.907 0.3483,2.027c0,1.12 0,1.68 -0.3483,2.027c-0.3476,0.348 -0.9065,0.348 -2.0267,0.348zM12.375,5.25v2.375M10,12.375c0,-1.12 0,-1.68 0.3483,-2.027c0.3476,-0.348 0.9065,-0.348 2.0267,-0.348c1.1202,0 1.6799,0 2.0267,0.348c0.3483,0.348 0.3483,0.908 0.3483,2.027c0,1.119 0,1.679 -0.3483,2.027c-0.3476,0.348 -0.9073,0.348 -2.0267,0.348c-1.1194,0 -1.6791,0 -2.0267,-0.348c-0.3483,-0.348 -0.3483,-0.907 -0.3483,-2.027zM10,12.375h-2.375M2.875,10c1.1202,0 1.6799,0 2.0267,0.348c0.3483,0.348 0.3483,0.907 0.3483,2.027c0,1.12 0,1.68 -0.3483,2.027c-0.3476,0.348 -0.9065,0.348 -2.0267,0.348c-1.1202,0 -1.6799,0 -2.0267,-0.348c-0.3483,-0.348 -0.3483,-0.907 -0.3483,-2.027c0,-1.12 0,-1.68 0.3483,-2.027c0.3476,-0.348 0.9065,-0.348 2.0267,-0.348zM2.875,10v-2.375" stroke="white" stroke-opacity="0.5" stroke-linecap="round" stroke-linejoin="round"/></svg>