<svg viewBox="0 0 13.5 12.0342" fill="none" xmlns="http://www.w3.org/2000/svg" xmlns:xlink="http://www.w3.org/1999/xlink" x="0" y="0"><g id="Group_2">
<path id="Vector_11" d="M7.8375,5.6972l1.5375,-1.538M5.25,6.7842c0,0.398 0.158,0.779 0.4393,1.061c0.2813,0.281 0.6629,0.439 1.0607,0.439c0.3978,0 0.7794,-0.158 1.0607,-0.439c0.2813,-0.282 0.4393,-0.663 0.4393,-1.061c0,-0.398 -0.158,-0.779 -0.4393,-1.061c-0.2813,-0.281 -0.6629,-0.439 -1.0607,-0.439c-0.3978,0 -0.7794,0.158 -1.0607,0.439c-0.2813,0.282 -0.4393,0.663 -0.4393,1.061z" stroke="white" stroke-linecap="round" stroke-linejoin="round"/>
<path id="Vector_12" d="M2.55,12.0342c-1.0964,-0.871 -1.8946,-2.062 -2.2839,-3.408c-0.3894,-1.345 -0.3506,-2.778 0.1109,-4.1c0.4615,-1.323 1.3229,-2.469 2.4647,-3.28c1.1419,-0.811 2.5078,-1.246 3.9083,-1.246c1.4005,0 2.7664,0.435 3.9083,1.246c1.1418,0.811 2.0032,1.957 2.4647,3.28c0.4615,1.322 0.5003,2.755 0.1109,4.1c-0.3893,1.346 -1.1875,2.537 -2.2839,3.408z" stroke="white" stroke-linecap="round" stroke-linejoin="round"/>
</g></svg>