<svg viewBox="0 0 11.0837 14.25" fill="none" xmlns="http://www.w3.org/2000/svg" xmlns:xlink="http://www.w3.org/1999/xlink" x="0" y="0"><g id="Group_3">
<path id="Vector_16" d="M0,13.458v-12.666c0,-0.21 0.0834,-0.412 0.2319,-0.56c0.1484,-0.149 0.3498,-0.232 0.5598,-0.232h4.8861c0.4199,0 0.8226,0.167 1.1195,0.464l3.8221,3.822c0.297,0.297 0.4639,0.7 0.4639,1.12v8.052c0,0.21 -0.0834,0.412 -0.2318,0.56c-0.1485,0.149 -0.3499,0.232 -0.5598,0.232h-9.5c-0.21,0 -0.4114,-0.083 -0.5598,-0.232c-0.1485,-0.148 -0.2319,-0.35 -0.2319,-0.56z" stroke="white" stroke-opacity="0.5" stroke-linejoin="round"/>
<path id="Vector_17" d="M5.542,0v4.75c0,0.21 0.0834,0.411 0.2319,0.56c0.1484,0.148 0.3498,0.232 0.5598,0.232h4.75" stroke="white" stroke-opacity="0.5" stroke-linejoin="round"/>
</g></svg>