<svg viewBox="0 0 150 32" fill="none" xmlns="http://www.w3.org/2000/svg" xmlns:xlink="http://www.w3.org/1999/xlink" x="0" y="0"><defs><mask id="mask0_732_961" style="mask-type:luminance" maskUnits="userSpaceOnUse" x="48" y="9" width="16" height="16">
<g id="SVGG1Ot4cAD">
<path id="Vector_20" d="M48,9h16v16h-16z" fill="white"/>
</g>
</mask><clipPath id="clip6_732_961">
<rect width="18" height="18" fill="white" transform="translate(8, 7)"/>
</clipPath><clipPath id="clip7_732_961">
<rect width="16" height="16" fill="white" transform="translate(48, 9)"/>
</clipPath><clipPath id="clip8_732_961">
<rect width="18" height="18" fill="white" transform="translate(86, 8)"/>
</clipPath><clipPath id="clip9_732_961">
<rect width="16" height="16" fill="white" transform="translate(126, 9)"/>
</clipPath></defs><g id="Group 82">
<g id="Group 72">
<rect id="Rectangle 120" x="0.25" y="0.25" width="31.5" height="31.5" rx="4.75" stroke="white" stroke-opacity="0.1" stroke-width="0.5"/>
<g id="teenyicons:github-outline" clip-path="url(#clip6_732_961)">
<path id="Vector_19" d="M14.78,21.9724c0.152,-0.0477 0.278,-0.1538 0.352,-0.2949c0.073,-0.1411 0.088,-0.3057 0.04,-0.4575c-0.048,-0.1518 -0.154,-0.2784 -0.295,-0.352c-0.141,-0.0736 -0.305,-0.0881 -0.457,-0.0404zM10.402,18.4204l-0.581,-0.1536l-0.304,1.1616l0.58,0.1524zM18.8,24.4v0.6h1.2v-0.6zM18.875,18.6256l-0.064,-0.5976c-0.113,0.0121 -0.22,0.0559 -0.309,0.1263c-0.089,0.0704 -0.156,0.1646 -0.194,0.2716c-0.037,0.107 -0.044,0.2225 -0.018,0.333c0.025,0.1105 0.081,0.2116 0.162,0.2915zM23,14.0944h0.6v-0.0012zM22,11.6872l-0.559,-0.216c-0.042,0.1082 -0.051,0.2262 -0.028,0.3397c0.024,0.1135 0.081,0.2177 0.162,0.2999zM21.94,9.2668l0.547,-0.2448c-0.035,-0.0798 -0.088,-0.1507 -0.154,-0.2079c-0.066,-0.0572 -0.144,-0.0993 -0.228,-0.1233zM19.333,10.2172l-0.152,0.5808c0.081,0.0211 0.165,0.0251 0.247,0.0119c0.083,-0.0132 0.161,-0.0434 0.231,-0.0887zM14.667,10.2172l-0.326,0.504c0.07,0.0453 0.148,0.0755 0.23,0.0887c0.083,0.0132 0.167,0.0092 0.247,-0.0119zM12.059,9.268l-0.164,-0.576c-0.084,0.0238 -0.162,0.0658 -0.229,0.1231c-0.066,0.0572 -0.119,0.1282 -0.155,0.2081zM11.999,11.6884l0.425,0.4236c0.082,-0.0823 0.139,-0.1867 0.163,-0.3004c0.023,-0.1138 0.014,-0.232 -0.028,-0.3404zM11,14.116h0.6v-0.0024zM15.125,18.6256l0.423,0.426c0.08,-0.0795 0.136,-0.1799 0.161,-0.2896c0.026,-0.1098 0.02,-0.2246 -0.017,-0.3312c-0.037,-0.1066 -0.103,-0.2007 -0.19,-0.2715c-0.088,-0.0708 -0.194,-0.1155 -0.306,-0.1289zM14.6,20.2h0.6l-0.001,-0.0444zM14,24.4v0.6h1.2v-0.6zM14.42,20.8276c-0.724,0.228 -1.183,0.2028 -1.488,0.102c-0.301,-0.0996 -0.533,-0.3 -0.755,-0.588c-0.116,-0.1555 -0.224,-0.3164 -0.324,-0.4824c-0.102,-0.1668 -0.218,-0.3624 -0.336,-0.5364c-0.229,-0.3372 -0.568,-0.7596 -1.115,-0.9036l-0.305,1.1616c0.096,0.024 0.221,0.114 0.426,0.4152c0.099,0.1464 0.192,0.3024 0.31,0.4944c0.113,0.1824 0.242,0.384 0.392,0.5808c0.304,0.396 0.718,0.7956 1.332,0.9984c0.612,0.2016 1.34,0.18 2.223,-0.0972zM20,20.1256c0,-0.3816 -0.017,-0.7296 -0.125,-1.0536c-0.115,-0.3456 -0.314,-0.612 -0.577,-0.8724l-0.846,0.852c0.186,0.1836 0.249,0.294 0.284,0.3996c0.042,0.126 0.064,0.3048 0.064,0.6744zM18.939,19.222c1.084,-0.1164 2.266,-0.39 3.176,-1.1784c0.936,-0.81 1.485,-2.076 1.485,-3.9492l-1.2,0.0012c0,1.6308 -0.468,2.52 -1.071,3.0408c-0.628,0.5448 -1.509,0.7836 -2.518,0.8916zM23.6,14.0932c-0.003,-1.0615 -0.426,-2.0798 -1.176,-2.8308l-0.849,0.8484c0.526,0.528 0.822,1.2396 0.825,1.9848zM22.559,11.9032c0.18,-0.4608 0.264,-0.9528 0.252,-1.4484l-1.2,0.03c0.01,0.3361 -0.048,0.6707 -0.17,0.984zM22.811,10.4548c-0.011,-0.4948 -0.121,-0.9811 -0.324,-1.4328l-1.095,0.4884c0.138,0.3072 0.211,0.6384 0.219,0.9744zM21.94,9.2668c0.165,-0.5772 0.165,-0.5784 0.163,-0.5784h-0.003l-0.005,-0.0024l-0.036,-0.0084l-0.065,-0.012c-0.062,-0.0102 -0.126,-0.0154 -0.189,-0.0156c-0.206,-0.0027 -0.412,0.0186 -0.612,0.0636c-0.51,0.1092 -1.229,0.3804 -2.184,0.9984l0.65,1.008c0.863,-0.5568 1.447,-0.7608 1.786,-0.8328c0.107,-0.0253 0.217,-0.0382 0.327,-0.0384l0.04,0.0024l-0.01,-0.0012l-0.012,-0.0024l-0.007,-0.0024h-0.004l-0.002,-0.0012c-0.001,0 -0.002,0 0.163,-0.5784M19.484,9.634c-1.629,-0.4249 -3.339,-0.4249 -4.968,0l0.302,1.1616c1.431,-0.3733 2.933,-0.3733 4.363,0zM14.992,9.7108c-0.956,-0.6156 -1.676,-0.8868 -2.186,-0.9948c-0.201,-0.045 -0.406,-0.0663 -0.612,-0.0636c-0.098,0.003 -0.194,0.015 -0.289,0.036l-0.005,0.0024h-0.004l0.163,0.5772l0.165,0.5772l-0.004,0.0012l-0.003,0.0012l-0.02,0.0048l0.03,-0.0012c0.111,0.0002 0.221,0.0131 0.328,0.0384c0.338,0.072 0.923,0.2748 1.786,0.8316zM11.512,9.0196c-0.202,0.4517 -0.312,0.9392 -0.324,1.434l1.2,0.03c0.008,-0.3362 0.082,-0.6675 0.22,-0.9744zM11.188,10.4536c-0.012,0.4956 0.072,0.9876 0.252,1.4484l1.119,-0.4344c-0.123,-0.3133 -0.181,-0.6478 -0.172,-0.984zM11.575,11.2612c-0.373,0.3758 -0.669,0.8204 -0.872,1.3092l1.109,0.456c0.142,-0.342 0.351,-0.654 0.612,-0.918zM10.703,12.5704c-0.2,0.4906 -0.303,1.0156 -0.303,1.5456l1.2,-0.0024c0,-0.372 0.072,-0.7404 0.212,-1.0836zM10.4,14.116c0,1.8636 0.549,3.1164 1.487,3.9216c0.908,0.78 2.088,1.056 3.168,1.1844l0.141,-1.1916c-1.016,-0.1224 -1.897,-0.3624 -2.528,-0.9048c-0.603,-0.5172 -1.068,-1.3944 -1.068,-3.012zM14.702,18.2008c-0.6,0.5976 -0.755,1.308 -0.701,2.0448l1.198,-0.09c-0.036,-0.4896 0.063,-0.8196 0.35,-1.1052zM14,20.2v4.2h1.2v-4.2zM20,24.4v-1.8h-1.2v1.8zM20,22.6v-2.4744h-1.2v2.4744z" fill="white" fill-opacity="0.4"/>
</g>
</g>
<g id="Group 73">
<g id="prime:twitter" clip-path="url(#clip7_732_961)">
<g id="Group_4">
<g id="Clip path group">
<mask id="mask0_732_961" style="mask-type:luminance" maskUnits="userSpaceOnUse" x="1015" y="38" width="16" height="16">
<g id="SVGG1Ot4cAD">
<path id="Vector_20" d="M1015 38H1031V54H1015V38Z" fill="white"/>
</g>
</mask>
<g mask="url(#mask0_732_961)">
<g id="Group_5">
<path id="Vector_21" d="M60.6,9.7497h2.45l-5.36,6.1417l6.31,8.3589h-4.94l-3.87,-5.0686l-4.42,5.0686h-2.46l5.74,-6.5714l-6.05,-7.928h5.06l3.5,4.632zM59.74,22.7783h1.36l-8.78,-11.6331h-1.46z" fill="white" fill-opacity="0.4"/>
</g>
</g>
</g>
</g>
</g>
<rect id="Rectangle 120_2" x="39.25" y="0.25" width="31.5" height="31.5" rx="4.75" stroke="white" stroke-opacity="0.1" stroke-width="0.5"/>
</g>
<g id="Group 74">
<g id="qlementine-icons:discord-24_2" clip-path="url(#clip8_732_961)">
<path id="Vector_22" fill-rule="evenodd" clip-rule="evenodd" d="M101,11.3525c0.12,0.0561 0.23,0.1447 0.31,0.2565c1.95,2.835 2.94,6.06 2.58,9.75c-0.01,0.1052 -0.05,0.2069 -0.1,0.2987c-0.05,0.0918 -0.12,0.1714 -0.21,0.2338c-1.32,0.975 -2.82,1.71 -4.4,2.1825c-0.15,0.0441 -0.3,0.042 -0.45,-0.0059c-0.14,-0.0479 -0.27,-0.1394 -0.36,-0.2618c-0.34,-0.45 -0.64,-0.93 -0.91,-1.425c-0.81,0.1965 -1.65,0.297 -2.49,0.297c-0.85,0 -1.69,-0.1005 -2.5,-0.2978c-0.27,0.4986 -0.57,0.9752 -0.91,1.425c-0.09,0.1231 -0.22,0.2148 -0.37,0.2627c-0.14,0.0479 -0.3,0.0497 -0.45,0.0051c-1.58,-0.4736 -3.07,-1.2143 -4.4,-2.19c-0.08,-0.0625 -0.16,-0.1423 -0.21,-0.2342c-0.05,-0.0919 -0.08,-0.1938 -0.09,-0.2991c-0.31,-3.195 0.31,-6.45 2.57,-9.75c0.08,-0.1132 0.18,-0.2032 0.31,-0.2602c1.15,-0.5183 2.35,-0.885 3.59,-1.095c0.31,-0.0525 0.62,0.096 0.78,0.3705c0.08,0.1425 0.16,0.2867 0.23,0.4327c0.96,-0.1027 1.93,-0.1027 2.88,0c0.08,-0.146 0.15,-0.2902 0.23,-0.4327c0.08,-0.1346 0.2,-0.2425 0.34,-0.3088c0.13,-0.0663 0.29,-0.0879 0.44,-0.0617c1.24,0.2077 2.45,0.5752 3.6,1.095zM96.85,11.8768c-1.25,-0.1867 -2.52,-0.1867 -3.78,0c-0.13,-0.3 -0.27,-0.5925 -0.43,-0.8775c-1.18,0.1987 -2.33,0.5475 -3.41,1.0425c-2.15,3.1575 -2.74,6.2325 -2.44,9.225c1.26,0.9225 2.67,1.6275 4.17,2.0775c0.34,-0.4486 0.64,-0.9257 0.9,-1.4258c-0.23,-0.084 -0.45,-0.177 -0.67,-0.279l-0.03,-0.0112c-0.24,-0.1143 -0.48,-0.2394 -0.71,-0.375c0.12,-0.084 0.23,-0.1725 0.34,-0.2558c0.57,0.2626 1.15,0.4708 1.76,0.6218c1.76,0.4461 3.62,0.3953 5.36,-0.147c0.42,-0.1305 0.84,-0.2895 1.23,-0.4755c0.12,0.092 0.23,0.1775 0.35,0.2565c-0.06,0.034 -0.12,0.0677 -0.18,0.1012c-0.18,0.0975 -0.36,0.189 -0.54,0.2745l-0.02,0.0113c-0.22,0.102 -0.44,0.195 -0.67,0.279c0.04,0.0825 0.08,0.1642 0.13,0.2452c0.22,0.4114 0.48,0.8059 0.76,1.1805c1.5,-0.4485 2.92,-1.1475 4.18,-2.07c0.34,-3.5175 -0.59,-6.5625 -2.45,-9.3c-1.09,-0.4913 -2.23,-0.8392 -3.41,-1.035c-0.16,0.285 -0.3,0.5775 -0.43,0.8775zM90.74,17.8093c0,0.9 0.67,1.6275 1.48,1.6275c0.84,0 1.47,-0.7305 1.49,-1.6275c0.01,-0.9 -0.65,-1.635 -1.49,-1.635c-0.83,0 -1.48,0.7372 -1.48,1.635zM96.22,17.8093c0,0.9 0.67,1.6275 1.49,1.6275c0.83,0 1.47,-0.7305 1.48,-1.6275c0.02,-0.9 -0.64,-1.635 -1.48,-1.635c-0.84,0 -1.49,0.7372 -1.49,1.635z" fill="white" fill-opacity="0.4"/>
</g>
<rect id="Rectangle 121" x="79.25" y="0.25" width="31.5" height="31.5" rx="4.75" stroke="white" stroke-opacity="0.1" stroke-width="0.5"/>
</g>
<g id="Group 75">
<g id="simple-line-icons:globe" clip-path="url(#clip9_732_961)">
<path id="Vector_23" d="M142.02,17c0,-4.2502 -3.34,-7.736 -7.54,-7.9847c-0.09,-0.0095 -0.17,-0.0158 -0.26,-0.0158c-0.03,0 -0.05,0.0028 -0.08,0.0035c-0.05,-0.0007 -0.09,-0.0035 -0.14,-0.0035c-4.42,0 -8.02,3.589 -8.02,8.0005c0,4.4115 3.6,8.0005 8.02,8.0005c0.05,0 0.09,-0.0027 0.14,-0.0037c0.03,0.001 0.05,0.0037 0.08,0.0037c0.09,0 0.17,-0.0062 0.26,-0.0158c4.2,-0.2487 7.54,-3.734 7.54,-7.9847zM140.52,19.5755c-0.27,-0.08 -0.96,-0.2537 -2.18,-0.3967c0.1,-0.6905 0.15,-1.4203 0.15,-2.1788c0,-0.5977 -0.03,-1.1772 -0.1,-1.7345c1.55,-0.1847 2.23,-0.4175 2.27,-0.4335l-0.18,-0.5248c0.35,0.8295 0.54,1.739 0.54,2.6928c0,0.9093 -0.18,1.7775 -0.5,2.5755zM130.46,17c0,-0.5595 0.04,-1.1058 0.11,-1.6312c0.81,0.0637 1.78,0.1107 2.92,0.1217v3.4698c-1.11,0.0107 -2.06,0.0557 -2.86,0.1167c-0.11,-0.6592 -0.17,-1.3575 -0.17,-2.077zM134.48,10.066c1.23,0.3552 2.28,2.0577 2.75,4.3142c-0.76,0.0603 -1.67,0.1043 -2.75,0.1146zM133.49,10.0782v4.416c-1.07,-0.0107 -1.99,-0.0542 -2.76,-0.113c0.48,-2.2282 1.54,-3.918 2.76,-4.303zM133.49,19.9567v3.9647c-1.14,-0.359 -2.13,-1.8527 -2.65,-3.8597c0.75,-0.0547 1.63,-0.0947 2.65,-0.105zM134.48,23.9339v-3.9775c1.03,0.0098 1.91,0.0513 2.65,0.1083c-0.51,2.0332 -1.5,3.5377 -2.65,3.8692zM134.48,18.9602v-3.4693c1.15,-0.0107 2.11,-0.059 2.91,-0.125c0.07,0.5422 0.1,1.088 0.1,1.6343c0,0.7207 -0.05,1.4197 -0.16,2.08c-0.79,-0.0638 -1.73,-0.1095 -2.85,-0.12zM140.29,13.9052c-0.15,0.047 -0.78,0.2262 -2.04,0.3755c-0.29,-1.4993 -0.79,-2.7808 -1.46,-3.7058c1.53,0.6623 2.77,1.8485 3.5,3.3303zM131.61,10.4155c-0.82,0.9367 -1.48,2.2837 -1.85,3.8767c-1.13,-0.1227 -1.81,-0.267 -2.08,-0.3325c0.79,-1.635 2.2,-2.918 3.93,-3.5442zM127.31,14.8935c0.19,0.0522 0.92,0.2334 2.27,0.3832c-0.08,0.571 -0.12,1.1469 -0.12,1.7235c0,0.7543 0.07,1.48 0.19,2.167c-1.16,0.1255 -1.87,0.2758 -2.2,0.3533c-0.3,-0.7828 -0.47,-1.632 -0.47,-2.5205c0,-0.7338 0.12,-1.4415 0.33,-2.1065zM127.89,20.4429c0.37,-0.0772 1.02,-0.1947 1.98,-0.2957c0.38,1.4017 1,2.5877 1.74,3.437c-1.58,-0.5738 -2.9,-1.6993 -3.72,-3.1413zM136.79,23.4247c0.6,-0.8323 1.07,-1.9535 1.37,-3.2625c0.99,0.1137 1.61,0.2467 1.92,0.326c-0.75,1.298 -1.9,2.3342 -3.29,2.9365z" fill="white" fill-opacity="0.4"/>
</g>
<rect id="Rectangle 122" x="118.25" y="0.25" width="31.5" height="31.5" rx="4.75" stroke="white" stroke-opacity="0.1" stroke-width="0.5"/>
</g>
</g></svg>