<svg viewBox="0 0 16.9627 13.101" fill="none" xmlns="http://www.w3.org/2000/svg" xmlns:xlink="http://www.w3.org/1999/xlink" x="0" y="0"><path id="Vector_18" fill-rule="evenodd" clip-rule="evenodd" d="M14.1664,1.0562c0.117,0.053 0.2174,0.137 0.2904,0.243c1.8488,2.677 2.7767,5.723 2.4367,9.208c-0.0097,0.099 -0.0403,0.195 -0.0897,0.282c-0.0494,0.087 -0.1166,0.162 -0.1972,0.221c-1.2537,0.921 -2.6633,1.615 -4.1579,2.061c-0.138,0.042 -0.2855,0.04 -0.4224,-0.006c-0.1369,-0.045 -0.2565,-0.131 -0.3426,-0.247c-0.3202,-0.425 -0.6063,-0.878 -0.8571,-1.346c-0.7721,0.186 -1.5654,0.281 -2.3587,0.281c-0.8004,0 -1.5938,-0.095 -2.3588,-0.281c-0.2491,0.47 -0.5357,0.921 -0.8571,1.345c-0.0872,0.117 -0.208,0.203 -0.3461,0.249c-0.1382,0.045 -0.2868,0.046 -0.4259,0.004c-1.4938,-0.447 -2.9001,-1.147 -4.158,-2.068c-0.0806,-0.059 -0.1478,-0.134 -0.1973,-0.221c-0.0494,-0.087 -0.0799,-0.183 -0.0895,-0.283c-0.2904,-3.017 0.2961,-6.091 2.4296,-9.208c0.0729,-0.107 0.1742,-0.192 0.2925,-0.246c1.0837,-0.489 2.2242,-0.836 3.3929,-1.034c0.294,-0.05 0.5879,0.091 0.7367,0.35c0.0755,0.135 0.1483,0.271 0.2181,0.409c0.9041,-0.097 1.816,-0.097 2.72,0c0.069,-0.138 0.1417,-0.274 0.2182,-0.409c0.0718,-0.127 0.1811,-0.229 0.3129,-0.292c0.1319,-0.062 0.2799,-0.083 0.4238,-0.058c1.1687,0.196 2.3091,0.543 3.3929,1.034zM10.2493,1.5512c-1.1834,-0.176 -2.3865,-0.176 -3.57,0c-0.1227,-0.283 -0.2599,-0.559 -0.4115,-0.828c-1.1121,0.187 -2.1958,0.517 -3.2158,0.984c-2.033,2.982 -2.5855,5.886 -2.3092,8.713c1.19,0.871 2.5217,1.537 3.9454,1.962c0.3197,-0.424 0.6022,-0.874 0.8443,-1.347c-0.2143,-0.079 -0.4253,-0.167 -0.6325,-0.263l-0.0234,-0.011c-0.2299,-0.108 -0.4549,-0.226 -0.6743,-0.354c0.1112,-0.079 0.2203,-0.163 0.3258,-0.242c0.5316,0.248 1.0857,0.445 1.6547,0.588c1.6699,0.421 3.4238,0.373 5.0681,-0.139c0.3967,-0.123 0.7863,-0.274 1.1617,-0.449c0.1072,0.087 0.2158,0.167 0.3258,0.242c-0.0552,0.032 -0.1114,0.064 -0.1686,0.096c-0.1662,0.092 -0.3355,0.178 -0.5078,0.259l-0.022,0.01c-0.2073,0.097 -0.4184,0.185 -0.6332,0.264c0.0396,0.078 0.0807,0.155 0.1232,0.232c0.2132,0.388 0.4542,0.761 0.7211,1.115c1.4167,-0.424 2.7554,-1.084 3.9454,-1.955c0.3237,-3.323 -0.5525,-6.198 -2.3162,-8.784c-1.025,-0.464 -2.1061,-0.792 -3.2159,-0.977c-0.1516,0.269 -0.2887,0.545 -0.4115,0.828zM4.4764,7.1542c0,0.85 0.6347,1.537 1.4025,1.537c0.7863,0 1.3884,-0.69 1.4025,-1.537c0.0135,-0.85 -0.6162,-1.544 -1.4025,-1.544c-0.7862,0 -1.4025,0.696 -1.4025,1.544zM9.6543,7.1542c0,0.85 0.6326,1.537 1.4025,1.537c0.7863,0 1.3884,-0.69 1.4025,-1.537c0.0142,-0.85 -0.6113,-1.544 -1.4025,-1.544c-0.7912,0 -1.4025,0.696 -1.4025,1.544z" fill="currentColor" fill-opacity="0.5"/></svg>