<svg width="1107" height="832" viewBox="0 0 1107 832" fill="none" xmlns="http://www.w3.org/2000/svg">
<g opacity="0.05">
<circle cx="680.469" cy="572.452" r="126.855" transform="rotate(-112.297 680.469 572.452)" stroke="white" stroke-width="0.918127"/>
<circle cx="680.247" cy="572.981" r="109.42" transform="rotate(-112.297 680.247 572.981)" stroke="white" stroke-width="0.918127"/>
<circle cx="680.469" cy="572.453" r="91.1743" transform="rotate(-112.297 680.469 572.453)" stroke="white" stroke-width="0.918127"/>
<circle cx="680.248" cy="572.982" r="74.5505" transform="rotate(-112.297 680.248 572.982)" stroke="white" stroke-width="0.918127"/>
<circle cx="680.248" cy="572.981" r="58.3322" transform="rotate(-112.297 680.248 572.981)" stroke="white" stroke-width="0.918127"/>
<circle cx="680.469" cy="572.452" r="42.5194" transform="rotate(-112.297 680.469 572.452)" stroke="white" stroke-width="0.918127"/>
<circle cx="680.248" cy="572.982" r="146.722" transform="rotate(-112.297 680.248 572.982)" stroke="white" stroke-width="0.918127"/>
</g>
<ellipse opacity="0.05" cx="679.978" cy="573.213" rx="148.648" ry="147.138" transform="rotate(-177.713 679.978 573.213)" fill="url(#paint0_linear_1538_5398)"/>
<g opacity="0.1">
<circle cx="532.019" cy="372.703" r="126.855" stroke="white" stroke-width="0.918127"/>
<circle cx="531.614" cy="372.297" r="109.42" stroke="white" stroke-width="0.918127"/>
<circle cx="532.019" cy="372.702" r="91.1743" stroke="white" stroke-width="0.918127"/>
<circle cx="531.614" cy="372.297" r="74.5505" stroke="white" stroke-width="0.918127"/>
<circle cx="531.614" cy="372.297" r="58.3322" stroke="white" stroke-width="0.918127"/>
<circle cx="532.019" cy="372.703" r="42.5194" stroke="white" stroke-width="0.918127"/>
<circle cx="531.614" cy="372.297" r="146.722" stroke="white" stroke-width="0.918127"/>
<g filter="url(#filter0_f_1538_5398)">
<ellipse cx="553.368" cy="470.058" rx="231.368" ry="207.497" fill="#7F5EE3" fill-opacity="0.6"/>
</g>
</g>
<g opacity="0.05">
<circle cx="720.406" cy="436.878" r="126.855" transform="rotate(-112.297 720.406 436.878)" stroke="white" stroke-width="0.918127"/>
<circle cx="720.185" cy="437.407" r="109.42" transform="rotate(-112.297 720.185 437.407)" stroke="white" stroke-width="0.918127"/>
<circle cx="720.406" cy="436.878" r="91.1743" transform="rotate(-112.297 720.406 436.878)" stroke="white" stroke-width="0.918127"/>
<circle cx="720.185" cy="437.407" r="74.5505" transform="rotate(-112.297 720.185 437.407)" stroke="white" stroke-width="0.918127"/>
<circle cx="720.185" cy="437.407" r="58.3322" transform="rotate(-112.297 720.185 437.407)" stroke="white" stroke-width="0.918127"/>
<circle cx="720.407" cy="436.878" r="42.5194" transform="rotate(-112.297 720.407 436.878)" stroke="white" stroke-width="0.918127"/>
<circle cx="720.185" cy="437.407" r="146.722" transform="rotate(-112.297 720.185 437.407)" stroke="white" stroke-width="0.918127"/>
</g>
<ellipse opacity="0.05" cx="721.484" cy="440.579" rx="149.521" ry="151.725" transform="rotate(161.975 721.484 440.579)" fill="url(#paint1_linear_1538_5398)"/>
<g opacity="0.05">
<circle cx="620.408" cy="262.418" r="126.855" stroke="white" stroke-width="0.918127"/>
<circle cx="620.003" cy="262.013" r="109.42" stroke="white" stroke-width="0.918127"/>
<circle cx="620.408" cy="262.418" r="91.1743" stroke="white" stroke-width="0.918127"/>
<circle cx="620.002" cy="262.013" r="74.5505" stroke="white" stroke-width="0.918127"/>
<circle cx="620.002" cy="262.013" r="58.3322" stroke="white" stroke-width="0.918127"/>
<circle cx="620.408" cy="262.418" r="42.5194" stroke="white" stroke-width="0.918127"/>
<circle cx="620.002" cy="262.013" r="146.722" stroke="white" stroke-width="0.918127"/>
</g>
<ellipse opacity="0.05" cx="619.772" cy="262.35" rx="148.501" ry="147.217" transform="rotate(24.3502 619.772 262.35)" fill="url(#paint2_linear_1538_5398)"/>
<defs>
<filter id="filter0_f_1538_5398" x="0.655457" y="-58.7833" width="1105.43" height="1057.68" filterUnits="userSpaceOnUse" color-interpolation-filters="sRGB">
<feFlood flood-opacity="0" result="BackgroundImageFix"/>
<feBlend mode="normal" in="SourceGraphic" in2="BackgroundImageFix" result="shape"/>
<feGaussianBlur stdDeviation="160.672" result="effect1_foregroundBlur_1538_5398"/>
</filter>
<linearGradient id="paint0_linear_1538_5398" x1="679.978" y1="426.075" x2="679.978" y2="720.351" gradientUnits="userSpaceOnUse">
<stop offset="0.326923" stop-color="#282047" stop-opacity="0"/>
<stop offset="0.788462" stop-color="#2B224D"/>
</linearGradient>
<linearGradient id="paint1_linear_1538_5398" x1="721.484" y1="288.854" x2="721.484" y2="592.304" gradientUnits="userSpaceOnUse">
<stop offset="0.293269" stop-color="#282047" stop-opacity="0"/>
<stop offset="0.913462" stop-color="#2B224D"/>
</linearGradient>
<linearGradient id="paint2_linear_1538_5398" x1="619.772" y1="115.133" x2="619.772" y2="409.566" gradientUnits="userSpaceOnUse">
<stop stop-color="#282047" stop-opacity="0"/>
<stop offset="0.7" stop-color="#2C2350"/>
</linearGradient>
</defs>
</svg>
