<svg width="75" height="48" viewBox="0 0 75 48" fill="none" xmlns="http://www.w3.org/2000/svg">
<g opacity="0.6">
<path d="M40.9232 43.2712L67.7165 26.1576C69.6494 24.9824 69.3827 22.8524 67.1833 21.4568L41.4564 5.07768C39.257 3.68215 35.9245 3.53525 33.9916 4.71044L7.19837 21.8241C5.26553 22.9993 5.53216 25.1293 7.73161 26.5248L33.4585 42.904C35.6579 44.2995 38.9904 44.4464 40.9232 43.2712Z" fill="#2F2555"/>
<path d="M37.6099 4.22998C38.8348 4.28832 40.081 4.61979 41.0962 5.20947L41.2954 5.33057L67.022 21.7095L67.023 21.7104C68.0749 22.378 68.6155 23.1898 68.7017 23.9243C68.7854 24.6396 68.4473 25.3619 67.5611 25.9009L67.5552 25.9048L40.7671 43.0151C39.866 43.5629 38.614 43.8147 37.3052 43.7524C36.0803 43.6941 34.8341 43.3617 33.8189 42.772L33.6196 42.6509L7.89308 26.272H7.89211C6.83976 25.6043 6.2995 24.7918 6.21339 24.0571C6.12963 23.3418 6.46764 22.6196 7.35402 22.0806L7.35988 22.0767L34.148 4.96631C35.049 4.41866 36.3012 4.16766 37.6099 4.22998Z" stroke="white" stroke-opacity="0.7" stroke-width="0.6"/>
</g>
<path fill-rule="evenodd" clip-rule="evenodd" d="M37.7239 47.9723C35.9243 47.9723 34.0581 47.5316 32.5918 46.5767L2.26611 27.2596C0.799815 26.3782 0 25.1296 0 23.8075C0 22.7792 0.599849 21.8244 1.66625 21.0899L33.2583 1.03828C35.5911 -0.504156 39.6567 -0.283808 42.3227 1.40552L72.6484 20.7226C74.1147 21.604 74.9145 22.9261 74.9145 24.1748C74.9145 25.203 74.3147 26.2313 73.2483 26.8924L41.6562 47.0174C40.5898 47.6785 39.1902 47.9723 37.7239 47.9723ZM37.1906 0.671031C35.8576 0.671031 34.5246 0.964818 33.5249 1.62586L1.93286 21.7509C1.06641 22.2651 0.599865 22.9996 0.599865 23.8075C0.599865 24.8358 1.33301 25.8641 2.59936 26.672L32.9251 45.9892C35.3911 47.605 39.1902 47.7519 41.3896 46.3564L72.9816 26.3048C73.8481 25.7172 74.3146 24.9827 74.3146 24.1748C74.3146 23.1465 73.5815 22.1182 72.3151 21.3102L41.9894 1.99311C40.5898 1.11172 38.8569 0.671031 37.1906 0.671031Z" fill="#2F2555"/>
<path d="M0.299805 23.8076C0.299805 23.6939 0.308454 23.5818 0.324219 23.4717C0.307943 23.583 0.299805 23.6952 0.299805 23.8076ZM0.299805 23.8076C0.299857 24.9836 1.13254 26.0916 2.43848 26.9248L32.7637 46.2422C34.0488 47.0833 35.6688 47.5355 37.2451 47.6016C38.8203 47.6675 40.3856 47.3487 41.5508 46.6094L73.1416 26.5576L73.1426 26.5586L73.1504 26.5527C73.878 26.0592 74.369 25.4442 74.543 24.7441C74.3697 25.4607 73.8752 26.1509 73.0898 26.6377L73.0869 26.6396L41.498 46.7627C40.4945 47.3847 39.1554 47.6719 37.7236 47.6719C35.9683 47.6718 34.1628 47.2413 32.7559 46.3252L32.7529 46.3232L2.42773 27.0068L2.4209 27.0029L2.16602 26.8408C0.931547 26.0142 0.299846 24.9227 0.299805 23.8076ZM37.6523 0.30957C39.2486 0.381042 40.8793 0.845453 42.1621 1.6582L72.4873 20.9756L72.4941 20.9795C73.8933 21.8206 74.6143 23.056 74.6143 24.1748C74.6143 23.0723 73.8833 22.0294 72.7158 21.2168L72.4766 21.0576L42.1504 1.74023L42.1494 1.73926L41.873 1.57324C40.4725 0.76925 38.7986 0.371094 37.1904 0.371094C35.9056 0.371122 34.5976 0.635298 33.5625 1.24805L33.3633 1.37305L1.7793 21.4932C1.21303 21.8293 0.790548 22.264 0.544922 22.7627C0.792005 22.2454 1.22379 21.7586 1.83594 21.3369L33.4189 1.29199L33.4238 1.28809C34.5219 0.562123 36.0533 0.238008 37.6523 0.30957Z" stroke="white" stroke-opacity="0.7" stroke-width="0.6"/>
</svg>
