<svg width="64" height="83" viewBox="0 0 64 83" fill="none" xmlns="http://www.w3.org/2000/svg">
<mask id="path-1-inside-1_1529_1577" fill="white">
<path d="M63.0817 20.4262H49.8184L35.0221 11.0248C33.0893 9.84958 29.7568 9.99648 27.5573 11.392L13.2942 20.4262H0.0309058V62.8799C-0.0357441 63.6878 0.364131 64.4957 1.29723 65.0099L28.0905 82.1235C30.0233 83.2987 33.3558 83.1518 35.5553 81.7563L61.2821 65.3771C62.4152 64.6426 63.015 63.7613 63.0817 62.8799V20.4262Z"/>
</mask>
<path d="M63.0817 20.4262H49.8184L35.0221 11.0248C33.0893 9.84958 29.7568 9.99648 27.5573 11.392L13.2942 20.4262H0.0309058V62.8799C-0.0357441 63.6878 0.364131 64.4957 1.29723 65.0099L28.0905 82.1235C30.0233 83.2987 33.3558 83.1518 35.5553 81.7563L61.2821 65.3771C62.4152 64.6426 63.015 63.7613 63.0817 62.8799V20.4262Z" fill="#2F2555" stroke="white" stroke-opacity="0.7" stroke-width="1.2" mask="url(#path-1-inside-1_1529_1577)"/>
<mask id="path-2-inside-2_1529_1577" fill="white">
<path d="M61.2821 64.7165L35.5553 81.0956C33.3558 82.4912 30.0233 82.6381 28.0905 81.4629L1.29723 64.3492C0.364131 63.7616 -0.0357441 63.0271 0.0309058 62.1458V62.8802C-0.0357441 63.6882 0.364131 64.4961 1.29723 65.0103L28.0905 82.1239C30.0233 83.2991 33.3558 83.1522 35.5553 81.7567L61.2821 65.3775C62.4152 64.643 63.015 63.7616 63.0817 62.8802V62.1458C63.015 63.0271 62.4152 63.982 61.2821 64.7165Z"/>
</mask>
<path d="M61.2821 64.7165L35.5553 81.0956C33.3558 82.4912 30.0233 82.6381 28.0905 81.4629L1.29723 64.3492C0.364131 63.7616 -0.0357441 63.0271 0.0309058 62.1458V62.8802C-0.0357441 63.6882 0.364131 64.4961 1.29723 65.0103L28.0905 82.1239C30.0233 83.2991 33.3558 83.1522 35.5553 81.7567L61.2821 65.3775C62.4152 64.643 63.015 63.7616 63.0817 62.8802V62.1458C63.015 63.0271 62.4152 63.982 61.2821 64.7165Z" fill="#2F2555" stroke="white" stroke-opacity="0.7" stroke-width="1.2" mask="url(#path-2-inside-2_1529_1577)"/>
<mask id="path-3-inside-3_1529_1577" fill="white">
<path d="M0.830713 63.5409V21.1607H14.1607L28.4237 12.0531C30.6232 10.6575 33.9557 10.5106 35.8219 11.6858L50.6182 21.1607H63.0817V20.4262H49.8184L35.0221 11.0248C33.0893 9.84958 29.7568 9.99648 27.5573 11.392L13.2942 20.4262H0.0309058V62.8799C-0.0357441 63.6878 0.364131 64.4957 1.29723 65.0099L1.43054 65.1568C1.03064 64.6426 0.830713 64.1285 0.830713 63.5409Z"/>
</mask>
<path d="M0.830713 63.5409V21.1607H14.1607L28.4237 12.0531C30.6232 10.6575 33.9557 10.5106 35.8219 11.6858L50.6182 21.1607H63.0817V20.4262H49.8184L35.0221 11.0248C33.0893 9.84958 29.7568 9.99648 27.5573 11.392L13.2942 20.4262H0.0309058V62.8799C-0.0357441 63.6878 0.364131 64.4957 1.29723 65.0099L1.43054 65.1568C1.03064 64.6426 0.830713 64.1285 0.830713 63.5409Z" fill="#2f2555ff" stroke="white" stroke-opacity="0.7" stroke-width="1.2" mask="url(#path-3-inside-3_1529_1577)"/>
<mask id="path-4-inside-4_1529_1577" fill="white">
<path d="M62.349 21.2346V63.6148C62.3046 64.1045 62.0824 64.5941 61.6825 65.0838C62.549 64.4227 63.0155 63.6148 63.0821 62.8803V20.5736C62.8155 20.7695 62.5712 20.9898 62.349 21.2346Z"/>
</mask>
<path d="M62.349 21.2346V63.6148C62.3046 64.1045 62.0824 64.5941 61.6825 65.0838C62.549 64.4227 63.0155 63.6148 63.0821 62.8803V20.5736C62.8155 20.7695 62.5712 20.9898 62.349 21.2346Z" fill="#2F2555" stroke="white" stroke-opacity="0.7" stroke-width="1.2" mask="url(#path-4-inside-4_1529_1577)"/>
<mask id="path-5-inside-5_1529_1577" fill="white">
<path d="M28.0908 39.6701L1.29749 22.6299C-0.635353 21.4547 -0.368721 19.3247 1.83073 17.9291L27.5576 1.54997C29.757 0.15444 33.0895 0.00754213 35.0224 1.18273L61.8156 18.2229C63.7485 19.4715 63.4819 21.6016 61.2824 22.9971L35.5556 39.3763C33.3561 40.7718 30.0236 40.9187 28.0908 39.6701Z"/>
</mask>
<path d="M28.0908 39.6701L1.29749 22.6299C-0.635353 21.4547 -0.368721 19.3247 1.83073 17.9291L27.5576 1.54997C29.757 0.15444 33.0895 0.00754213 35.0224 1.18273L61.8156 18.2229C63.7485 19.4715 63.4819 21.6016 61.2824 22.9971L35.5556 39.3763C33.3561 40.7718 30.0236 40.9187 28.0908 39.6701Z" fill="#2F2555" stroke="white" stroke-opacity="0.7" stroke-width="1.2" mask="url(#path-5-inside-5_1529_1577)"/>
<mask id="path-6-inside-6_1529_1577" fill="white">
<path d="M61.8152 18.2231L35.022 1.18293C34.0222 0.595335 32.6226 0.301534 31.2229 0.374983C32.2893 0.448433 33.2224 0.742233 33.9555 1.18293L60.7488 18.2231C62.6817 19.4717 62.4151 21.6018 60.2156 22.9973L34.4888 39.3765C33.4224 40.0375 32.0894 40.4048 30.823 40.4782C32.4226 40.6251 34.2222 40.2579 35.5552 39.3765L61.282 22.9973C63.4814 21.6018 63.7481 19.4717 61.8152 18.2231Z"/>
</mask>
<path d="M61.8152 18.2231L35.022 1.18293C34.0222 0.595335 32.6226 0.301534 31.2229 0.374983C32.2893 0.448433 33.2224 0.742233 33.9555 1.18293L60.7488 18.2231C62.6817 19.4717 62.4151 21.6018 60.2156 22.9973L34.4888 39.3765C33.4224 40.0375 32.0894 40.4048 30.823 40.4782C32.4226 40.6251 34.2222 40.2579 35.5552 39.3765L61.282 22.9973C63.4814 21.6018 63.7481 19.4717 61.8152 18.2231Z" fill="#2F2555" stroke="white" stroke-opacity="0.7" stroke-width="1.2" mask="url(#path-6-inside-6_1529_1577)"/>
<mask id="path-7-inside-7_1529_1577" fill="white">
<path d="M28.9571 34.7493L9.02885 22.1161C7.6292 21.1612 7.76249 19.6188 9.42873 18.5905L28.5573 6.39794C30.2235 5.2962 32.6896 5.22274 34.1559 6.10413L54.0842 18.8108C55.4838 19.6922 55.3505 21.3081 53.6843 22.3364L34.5558 34.5289C32.8895 35.5572 30.4234 35.7041 28.9571 34.7493Z"/>
</mask>
<path d="M28.9571 34.7493L9.02885 22.1161C7.6292 21.1612 7.76249 19.6188 9.42873 18.5905L28.5573 6.39794C30.2235 5.2962 32.6896 5.22274 34.1559 6.10413L54.0842 18.8108C55.4838 19.6922 55.3505 21.3081 53.6843 22.3364L34.5558 34.5289C32.8895 35.5572 30.4234 35.7041 28.9571 34.7493Z" fill="#2F2555" stroke="white" stroke-opacity="0.7" stroke-width="1.2" mask="url(#path-7-inside-7_1529_1577)"/>
<mask id="path-8-inside-8_1529_1577" fill="white">
<path d="M29.6904 30.8562L15.2274 21.6016C14.2276 21.014 14.3609 19.8388 15.494 19.1043L29.4238 10.217C30.6235 9.48248 32.423 9.40904 33.4228 10.0701L47.8858 19.2512C48.8856 19.9123 48.7523 21.0875 47.6192 21.8219L33.6894 30.6358C32.4897 31.3703 30.6902 31.5172 29.6904 30.8562Z"/>
</mask>
<path d="M29.6904 30.8562L15.2274 21.6016C14.2276 21.014 14.3609 19.8388 15.494 19.1043L29.4238 10.217C30.6235 9.48248 32.423 9.40904 33.4228 10.0701L47.8858 19.2512C48.8856 19.9123 48.7523 21.0875 47.6192 21.8219L33.6894 30.6358C32.4897 31.3703 30.6902 31.5172 29.6904 30.8562Z" fill="#2F2555" stroke="white" stroke-opacity="0.7" stroke-width="1.2" mask="url(#path-8-inside-8_1529_1577)"/>
<mask id="path-9-inside-9_1529_1577" fill="white">
<path d="M29.2905 39.6704L2.49723 22.6302C0.564378 21.455 0.83097 19.325 3.03042 17.9294L28.7573 1.5503C29.8237 0.889254 31.09 0.522004 32.423 0.375106C30.7568 0.301657 28.9572 0.668907 27.5576 1.5503L1.83073 17.9294C-0.368721 19.325 -0.635353 21.455 1.29749 22.6302L28.0908 39.6704C29.0905 40.3314 30.4902 40.6252 31.8898 40.4783C30.9567 40.4049 30.0236 40.1845 29.2905 39.6704Z"/>
</mask>
<path d="M29.2905 39.6704L2.49723 22.6302C0.564378 21.455 0.83097 19.325 3.03042 17.9294L28.7573 1.5503C29.8237 0.889254 31.09 0.522004 32.423 0.375106C30.7568 0.301657 28.9572 0.668907 27.5576 1.5503L1.83073 17.9294C-0.368721 19.325 -0.635353 21.455 1.29749 22.6302L28.0908 39.6704C29.0905 40.3314 30.4902 40.6252 31.8898 40.4783C30.9567 40.4049 30.0236 40.1845 29.2905 39.6704Z" fill="#2F2555" stroke="white" stroke-opacity="0.7" stroke-width="1.2" mask="url(#path-9-inside-9_1529_1577)"/>
<mask id="mask0_1529_1577" style="mask-type:luminance" maskUnits="userSpaceOnUse" x="14" y="9" width="35" height="23">
<mask id="path-10-inside-10_1529_1577" fill="white">
<path d="M29.6969 30.8347L15.2339 21.6315C14.2008 20.9778 14.3341 19.832 15.5205 19.0828L29.4037 10.2469C30.5967 9.49034 32.3896 9.40955 33.416 10.0632L47.879 19.2664C48.9121 19.9201 48.7788 21.0586 47.5924 21.8151L33.7092 30.651C32.5162 31.4076 30.7234 31.4884 29.6969 30.8347Z"/>
</mask>
<path d="M29.6969 30.8347L15.2339 21.6315C14.2008 20.9778 14.3341 19.832 15.5205 19.0828L29.4037 10.2469C30.5967 9.49034 32.3896 9.40955 33.416 10.0632L47.879 19.2664C48.9121 19.9201 48.7788 21.0586 47.5924 21.8151L33.7092 30.651C32.5162 31.4076 30.7234 31.4884 29.6969 30.8347Z" fill="white" stroke="white" stroke-width="1.2" mask="url(#path-10-inside-10_1529_1577)"/>
</mask>
<g mask="url(#mask0_1529_1577)">
<mask id="path-11-inside-11_1529_1577" fill="white">
<path d="M15.4939 20.3525L29.4237 11.4651C30.6234 10.7306 32.423 10.6572 33.4227 11.3182L47.8858 20.4994C48.1079 20.6463 48.2856 20.8176 48.4189 21.0135C48.7522 20.3525 48.6189 19.6914 47.8858 19.2507L33.4227 10.0696C32.423 9.40855 30.6234 9.48199 29.4237 10.2165L15.4939 19.1038C14.5608 19.6914 14.2942 20.4994 14.6941 21.1604C14.8718 20.8666 15.1385 20.5973 15.4939 20.3525Z"/>
</mask>
<path d="M15.4939 20.3525L29.4237 11.4651C30.6234 10.7306 32.423 10.6572 33.4227 11.3182L47.8858 20.4994C48.1079 20.6463 48.2856 20.8176 48.4189 21.0135C48.7522 20.3525 48.6189 19.6914 47.8858 19.2507L33.4227 10.0696C32.423 9.40855 30.6234 9.48199 29.4237 10.2165L15.4939 19.1038C14.5608 19.6914 14.2942 20.4994 14.6941 21.1604C14.8718 20.8666 15.1385 20.5973 15.4939 20.3525Z" fill="#2F2555" stroke="white" stroke-opacity="0.7" stroke-width="1.2" mask="url(#path-11-inside-11_1529_1577)"/>
<mask id="path-12-inside-12_1529_1577" fill="white">
<path d="M15.4942 21.8216L29.424 13.0077C30.6237 12.1998 32.4232 12.1263 33.423 12.7873L47.886 22.0419C48.0637 22.1399 48.197 22.2623 48.2859 22.4092C48.7524 21.7481 48.6191 21.0136 47.886 20.4995L33.423 11.3184C32.4232 10.6573 30.6237 10.7308 29.424 11.4653L15.4942 20.3526C14.5611 20.9402 14.2945 21.8216 14.8277 22.4826C14.961 22.2378 15.1831 22.0175 15.4942 21.8216Z"/>
</mask>
<path d="M15.4942 21.8216L29.424 13.0077C30.6237 12.1998 32.4232 12.1263 33.423 12.7873L47.886 22.0419C48.0637 22.1399 48.197 22.2623 48.2859 22.4092C48.7524 21.7481 48.6191 21.0136 47.886 20.4995L33.423 11.3184C32.4232 10.6573 30.6237 10.7308 29.424 11.4653L15.4942 20.3526C14.5611 20.9402 14.2945 21.8216 14.8277 22.4826C14.961 22.2378 15.1831 22.0175 15.4942 21.8216Z" fill="#2F2555" stroke="white" stroke-opacity="0.7" stroke-width="1.2" mask="url(#path-12-inside-12_1529_1577)"/>
<mask id="path-13-inside-13_1529_1577" fill="white">
<path d="M14.9609 24.1721C15.0942 23.9763 15.272 23.8049 15.4941 23.658L29.4239 14.8441C30.6236 14.0362 32.4232 13.9627 33.4229 14.6237L47.886 23.8783C47.9748 23.9273 48.0637 24.0007 48.1526 24.0987C48.7524 23.3642 48.6858 22.5562 47.886 22.0421L33.4229 12.7875C32.4232 12.1265 30.6236 12.1999 29.4239 13.0079L15.4941 21.8218C14.4277 22.4828 14.2277 23.5111 14.9609 24.1721Z"/>
</mask>
<path d="M14.9609 24.1721C15.0942 23.9763 15.272 23.8049 15.4941 23.658L29.4239 14.8441C30.6236 14.0362 32.4232 13.9627 33.4229 14.6237L47.886 23.8783C47.9748 23.9273 48.0637 24.0007 48.1526 24.0987C48.7524 23.3642 48.6858 22.5562 47.886 22.0421L33.4229 12.7875C32.4232 12.1265 30.6236 12.1999 29.4239 13.0079L15.4941 21.8218C14.4277 22.4828 14.2277 23.5111 14.9609 24.1721Z" fill="#2F2555" stroke="white" stroke-opacity="0.7" stroke-width="1.2" mask="url(#path-13-inside-13_1529_1577)"/>
</g>
<mask id="path-14-inside-14_1529_1577" fill="white">
<path d="M40.8209 70.9596L39.2879 71.9144C38.9547 72.1347 38.6214 71.841 38.6214 71.3268V48.4107C38.6214 47.8965 38.9547 47.2355 39.2879 46.9417L40.8209 46.0603C41.1542 45.7665 41.4874 46.0603 41.4874 46.5744V69.4906C41.4874 70.0782 41.1542 70.6658 40.8209 70.9596Z"/>
</mask>
<path d="M40.8209 70.9596L39.2879 71.9144C38.9547 72.1347 38.6214 71.841 38.6214 71.3268V48.4107C38.6214 47.8965 38.9547 47.2355 39.2879 46.9417L40.8209 46.0603C41.1542 45.7665 41.4874 46.0603 41.4874 46.5744V69.4906C41.4874 70.0782 41.1542 70.6658 40.8209 70.9596Z" fill="#2F2555" stroke="white" stroke-opacity="0.7" stroke-width="1.2" mask="url(#path-14-inside-14_1529_1577)"/>
<mask id="path-15-inside-15_1529_1577" fill="white">
<path d="M40.8209 46.0603L40.421 46.2807V68.7561C40.421 69.2702 40.1544 69.9313 39.7545 70.1516L38.6214 70.8861V71.3268C38.6214 71.841 38.9547 72.1347 39.2879 71.9144L40.8209 70.9596C41.1542 70.6658 41.4874 70.0782 41.4874 69.4906V46.5744C41.4874 46.0603 41.1542 45.7665 40.8209 46.0603Z"/>
</mask>
<path d="M40.8209 46.0603L40.421 46.2807V68.7561C40.421 69.2702 40.1544 69.9313 39.7545 70.1516L38.6214 70.8861V71.3268C38.6214 71.841 38.9547 72.1347 39.2879 71.9144L40.8209 70.9596C41.1542 70.6658 41.4874 70.0782 41.4874 69.4906V46.5744C41.4874 46.0603 41.1542 45.7665 40.8209 46.0603Z" fill="#2F2555" stroke="white" stroke-opacity="0.7" stroke-width="1.2" mask="url(#path-15-inside-15_1529_1577)"/>
<mask id="path-16-inside-16_1529_1577" fill="white">
<path d="M46.286 67.4337L44.8198 68.3886C44.4199 68.6824 44.0866 68.3886 44.0866 67.801V44.9583C44.0866 44.3707 44.4199 43.7097 44.8198 43.4893L46.286 42.5345C46.6859 42.3141 46.9525 42.5345 46.9525 43.1221V65.9648C46.9525 66.5524 46.6859 67.2134 46.286 67.4337Z"/>
</mask>
<path d="M46.286 67.4337L44.8198 68.3886C44.4199 68.6824 44.0866 68.3886 44.0866 67.801V44.9583C44.0866 44.3707 44.4199 43.7097 44.8198 43.4893L46.286 42.5345C46.6859 42.3141 46.9525 42.5345 46.9525 43.1221V65.9648C46.9525 66.5524 46.6859 67.2134 46.286 67.4337Z" fill="#2F2555" stroke="white" stroke-opacity="0.7" stroke-width="1.2" mask="url(#path-16-inside-16_1529_1577)"/>
<mask id="path-17-inside-17_1529_1577" fill="white">
<path d="M51.7517 63.9817L50.2854 64.9365C49.8855 65.1568 49.5523 64.9365 49.5523 64.3489V41.4328C49.5523 40.9186 49.8855 40.2576 50.2854 39.9638L51.7517 39.0824C52.1516 38.7886 52.4849 39.0824 52.4849 39.5965V62.5127C52.4849 63.1003 52.1516 63.7613 51.7517 63.9817Z"/>
</mask>
<path d="M51.7517 63.9817L50.2854 64.9365C49.8855 65.1568 49.5523 64.9365 49.5523 64.3489V41.4328C49.5523 40.9186 49.8855 40.2576 50.2854 39.9638L51.7517 39.0824C52.1516 38.7886 52.4849 39.0824 52.4849 39.5965V62.5127C52.4849 63.1003 52.1516 63.7613 51.7517 63.9817Z" fill="#2F2555" stroke="white" stroke-opacity="0.7" stroke-width="1.2" mask="url(#path-17-inside-17_1529_1577)"/>
<mask id="path-18-inside-18_1529_1577" fill="white">
<path d="M57.2168 60.4563L55.7505 61.4112C55.3506 61.705 55.084 61.4112 55.084 60.8236V37.9809C55.084 37.3933 55.3506 36.7323 55.7505 36.5119L57.2168 35.5571C57.6167 35.3367 57.95 35.5571 57.95 36.1447V59.0608C57.95 59.5749 57.6167 60.236 57.2168 60.4563Z"/>
</mask>
<path d="M57.2168 60.4563L55.7505 61.4112C55.3506 61.705 55.084 61.4112 55.084 60.8236V37.9809C55.084 37.3933 55.3506 36.7323 55.7505 36.5119L57.2168 35.5571C57.6167 35.3367 57.95 35.5571 57.95 36.1447V59.0608C57.95 59.5749 57.6167 60.236 57.2168 60.4563Z" fill="#2F2555" stroke="white" stroke-opacity="0.7" stroke-width="1.2" mask="url(#path-18-inside-18_1529_1577)"/>
<mask id="path-19-inside-19_1529_1577" fill="white">
<path d="M46.286 42.5345L45.9528 42.7549V65.2303C45.9528 65.8179 45.6195 66.4789 45.2196 66.6993L44.0866 67.4337V67.801C44.0866 68.3886 44.4199 68.6824 44.8198 68.3886L46.286 67.4337C46.6859 67.2134 46.9525 66.5524 46.9525 65.9648V43.1221C46.9525 42.5345 46.6859 42.3141 46.286 42.5345Z"/>
</mask>
<path d="M46.286 42.5345L45.9528 42.7549V65.2303C45.9528 65.8179 45.6195 66.4789 45.2196 66.6993L44.0866 67.4337V67.801C44.0866 68.3886 44.4199 68.6824 44.8198 68.3886L46.286 67.4337C46.6859 67.2134 46.9525 66.5524 46.9525 65.9648V43.1221C46.9525 42.5345 46.6859 42.3141 46.286 42.5345Z" fill="#2F2555" stroke="white" stroke-opacity="0.7" stroke-width="1.2" mask="url(#path-19-inside-19_1529_1577)"/>
<mask id="path-20-inside-20_1529_1577" fill="white">
<path d="M51.7517 39.0824L51.4185 39.3028V61.7782C51.4185 62.2923 51.0852 62.9534 50.6853 63.1737L49.5523 63.9082V64.3489C49.5523 64.9365 49.8855 65.1568 50.2854 64.9365L51.7517 63.9817C52.1516 63.7613 52.4849 63.1003 52.4849 62.5127V39.5965C52.4849 39.0824 52.1516 38.7886 51.7517 39.0824Z"/>
</mask>
<path d="M51.7517 39.0824L51.4185 39.3028V61.7782C51.4185 62.2923 51.0852 62.9534 50.6853 63.1737L49.5523 63.9082V64.3489C49.5523 64.9365 49.8855 65.1568 50.2854 64.9365L51.7517 63.9817C52.1516 63.7613 52.4849 63.1003 52.4849 62.5127V39.5965C52.4849 39.0824 52.1516 38.7886 51.7517 39.0824Z" fill="#2F2555" stroke="white" stroke-opacity="0.7" stroke-width="1.2" mask="url(#path-20-inside-20_1529_1577)"/>
<mask id="path-21-inside-21_1529_1577" fill="white">
<path d="M57.2168 35.5571L56.8836 35.7774V58.2529C56.8836 58.8405 56.5503 59.5015 56.2171 59.7218L55.084 60.4563V60.8236C55.084 61.4112 55.3506 61.705 55.7505 61.4112L57.2168 60.4563C57.6167 60.236 57.95 59.5749 57.95 59.0608V36.1447C57.95 35.5571 57.6167 35.3367 57.2168 35.5571Z"/>
</mask>
<path d="M57.2168 35.5571L56.8836 35.7774V58.2529C56.8836 58.8405 56.5503 59.5015 56.2171 59.7218L55.084 60.4563V60.8236C55.084 61.4112 55.3506 61.705 55.7505 61.4112L57.2168 60.4563C57.6167 60.236 57.95 59.5749 57.95 59.0608V36.1447C57.95 35.5571 57.6167 35.3367 57.2168 35.5571Z" fill="#2F2555" stroke="white" stroke-opacity="0.7" stroke-width="1.2" mask="url(#path-21-inside-21_1529_1577)"/>
<mask id="path-22-inside-22_1529_1577" fill="white">
<path fill-rule="evenodd" clip-rule="evenodd" d="M25.8909 73.7506C25.7132 73.7506 25.5354 73.7017 25.3577 73.6037L5.96255 61.2643C5.29605 60.8236 4.76286 59.7218 4.76286 58.767V34.5288C4.76286 34.0146 4.9628 33.5739 5.29605 33.3536C5.56265 33.2067 5.89592 33.2067 6.22917 33.4271L25.5576 45.7665C26.2241 46.1337 26.7573 47.2355 26.7573 48.2638V72.4285C26.7573 73.0161 26.624 73.4568 26.2908 73.6037C26.1575 73.7017 26.0242 73.7506 25.8909 73.7506ZM5.69598 33.7208C5.60711 33.7208 5.54047 33.7453 5.49604 33.7943C5.36274 33.8677 5.22942 34.1615 5.22942 34.5288V58.767C5.22942 59.5015 5.69597 60.4563 6.22917 60.8236L25.5576 73.163C25.6909 73.2365 25.8909 73.3099 26.0242 73.2365C26.2241 73.0896 26.2908 72.7958 26.2908 72.4285V48.2638C26.2908 47.4558 25.8909 46.501 25.3577 46.2072L5.96255 33.8678C5.8959 33.7943 5.76263 33.7208 5.69598 33.7208Z"/>
</mask>
<path fill-rule="evenodd" clip-rule="evenodd" d="M25.8909 73.7506C25.7132 73.7506 25.5354 73.7017 25.3577 73.6037L5.96255 61.2643C5.29605 60.8236 4.76286 59.7218 4.76286 58.767V34.5288C4.76286 34.0146 4.9628 33.5739 5.29605 33.3536C5.56265 33.2067 5.89592 33.2067 6.22917 33.4271L25.5576 45.7665C26.2241 46.1337 26.7573 47.2355 26.7573 48.2638V72.4285C26.7573 73.0161 26.624 73.4568 26.2908 73.6037C26.1575 73.7017 26.0242 73.7506 25.8909 73.7506ZM5.69598 33.7208C5.60711 33.7208 5.54047 33.7453 5.49604 33.7943C5.36274 33.8677 5.22942 34.1615 5.22942 34.5288V58.767C5.22942 59.5015 5.69597 60.4563 6.22917 60.8236L25.5576 73.163C25.6909 73.2365 25.8909 73.3099 26.0242 73.2365C26.2241 73.0896 26.2908 72.7958 26.2908 72.4285V48.2638C26.2908 47.4558 25.8909 46.501 25.3577 46.2072L5.96255 33.8678C5.8959 33.7943 5.76263 33.7208 5.69598 33.7208Z" fill="#2F2555" stroke="white" stroke-opacity="0.7" stroke-width="1.2" mask="url(#path-22-inside-22_1529_1577)"/>
<mask id="path-23-inside-23_1529_1577" fill="white">
<path d="M8.56278 39.3027C8.56278 39.9637 8.16287 40.184 7.62967 39.8902C7.09647 39.523 6.69659 38.7151 6.69659 38.054C6.69659 37.393 7.09647 37.1726 7.62967 37.4664C8.16287 37.8337 8.56278 38.6416 8.56278 39.3027Z"/>
</mask>
<path d="M8.56278 39.3027C8.56278 39.9637 8.16287 40.184 7.62967 39.8902C7.09647 39.523 6.69659 38.7151 6.69659 38.054C6.69659 37.393 7.09647 37.1726 7.62967 37.4664C8.16287 37.8337 8.56278 38.6416 8.56278 39.3027Z" fill="#2F2555" stroke="white" stroke-opacity="0.7" stroke-width="1.2" mask="url(#path-23-inside-23_1529_1577)"/>
<mask id="path-24-inside-24_1529_1577" fill="white">
<path d="M8.56278 42.6808C8.56278 43.3419 8.16287 43.5622 7.62967 43.2684C7.09647 42.9012 6.69659 42.0932 6.69659 41.4322C6.69659 40.7711 7.09647 40.5508 7.62967 40.8446C8.16287 41.2118 8.56278 42.0198 8.56278 42.6808Z"/>
</mask>
<path d="M8.56278 42.6808C8.56278 43.3419 8.16287 43.5622 7.62967 43.2684C7.09647 42.9012 6.69659 42.0932 6.69659 41.4322C6.69659 40.7711 7.09647 40.5508 7.62967 40.8446C8.16287 41.2118 8.56278 42.0198 8.56278 42.6808Z" fill="#2F2555" stroke="white" stroke-opacity="0.7" stroke-width="1.2" mask="url(#path-24-inside-24_1529_1577)"/>
<mask id="path-25-inside-25_1529_1577" fill="white">
<path d="M8.56278 45.9865C8.56278 46.721 8.16287 46.9413 7.62967 46.6475C7.09647 46.2803 6.69659 45.4723 6.69659 44.8113C6.69659 44.1502 7.09647 43.8565 7.62967 44.2237C8.16287 44.591 8.56278 45.3254 8.56278 45.9865Z"/>
</mask>
<path d="M8.56278 45.9865C8.56278 46.721 8.16287 46.9413 7.62967 46.6475C7.09647 46.2803 6.69659 45.4723 6.69659 44.8113C6.69659 44.1502 7.09647 43.8565 7.62967 44.2237C8.16287 44.591 8.56278 45.3254 8.56278 45.9865Z" fill="#2F2555" stroke="white" stroke-opacity="0.7" stroke-width="1.2" mask="url(#path-25-inside-25_1529_1577)"/>
<mask id="path-26-inside-26_1529_1577" fill="white">
<path d="M8.09623 46.2073C7.56303 45.9135 7.16315 45.1056 7.16315 44.4445C7.16315 44.2976 7.18535 44.1752 7.22979 44.0773C6.89654 44.0773 6.69659 44.3711 6.69659 44.8118C6.69659 45.4728 7.09647 46.2807 7.62967 46.648C8.02957 46.8683 8.4295 46.7949 8.49615 46.3542C8.40728 46.3542 8.27396 46.3052 8.09623 46.2073Z"/>
</mask>
<path d="M8.09623 46.2073C7.56303 45.9135 7.16315 45.1056 7.16315 44.4445C7.16315 44.2976 7.18535 44.1752 7.22979 44.0773C6.89654 44.0773 6.69659 44.3711 6.69659 44.8118C6.69659 45.4728 7.09647 46.2807 7.62967 46.648C8.02957 46.8683 8.4295 46.7949 8.49615 46.3542C8.40728 46.3542 8.27396 46.3052 8.09623 46.2073Z" fill="#2F2555" stroke="white" stroke-opacity="0.7" stroke-width="1.2" mask="url(#path-26-inside-26_1529_1577)"/>
<mask id="path-27-inside-27_1529_1577" fill="white">
<path d="M8.09623 42.8281C7.56303 42.5343 7.16315 41.7264 7.16315 41.0654C7.16315 40.9185 7.18535 40.7961 7.22979 40.6981C6.89654 40.6981 6.69659 40.9919 6.69659 41.4326C6.69659 42.0937 7.09647 42.9016 7.62967 43.2688C8.02957 43.4892 8.4295 43.4157 8.49615 42.975C8.40728 42.975 8.27396 42.9261 8.09623 42.8281Z"/>
</mask>
<path d="M8.09623 42.8281C7.56303 42.5343 7.16315 41.7264 7.16315 41.0654C7.16315 40.9185 7.18535 40.7961 7.22979 40.6981C6.89654 40.6981 6.69659 40.9919 6.69659 41.4326C6.69659 42.0937 7.09647 42.9016 7.62967 43.2688C8.02957 43.4892 8.4295 43.4157 8.49615 42.975C8.40728 42.975 8.27396 42.9261 8.09623 42.8281Z" fill="#2F2555" stroke="white" stroke-opacity="0.7" stroke-width="1.2" mask="url(#path-27-inside-27_1529_1577)"/>
<mask id="path-28-inside-28_1529_1577" fill="white">
<path d="M8.09607 39.4497C7.56287 39.1559 7.163 38.348 7.163 37.6869C7.163 37.54 7.1852 37.4176 7.22963 37.3197C6.89638 37.3197 6.69644 37.6135 6.69644 38.0542C6.69644 38.7152 7.09632 39.5232 7.62952 39.8904C8.02942 40.1842 8.42935 40.0373 8.496 39.5966C8.40713 39.5966 8.27381 39.5477 8.09607 39.4497Z"/>
</mask>
<path d="M8.09607 39.4497C7.56287 39.1559 7.163 38.348 7.163 37.6869C7.163 37.54 7.1852 37.4176 7.22963 37.3197C6.89638 37.3197 6.69644 37.6135 6.69644 38.0542C6.69644 38.7152 7.09632 39.5232 7.62952 39.8904C8.02942 40.1842 8.42935 40.0373 8.496 39.5966C8.40713 39.5966 8.27381 39.5477 8.09607 39.4497Z" fill="#2F2555" stroke="white" stroke-opacity="0.7" stroke-width="1.2" mask="url(#path-28-inside-28_1529_1577)"/>
<mask id="path-29-inside-29_1529_1577" fill="white">
<path d="M24.1582 61.6314L23.4917 61.2642C23.3584 61.1173 23.1585 60.8235 23.1585 60.5297V57.2245C23.1585 56.9307 23.3584 56.7838 23.4917 56.9307L24.1582 57.2979C24.3582 57.4448 24.4915 57.8121 24.4915 58.0324V61.3376C24.4915 61.6314 24.3582 61.7783 24.1582 61.6314Z"/>
</mask>
<path d="M24.1582 61.6314L23.4917 61.2642C23.3584 61.1173 23.1585 60.8235 23.1585 60.5297V57.2245C23.1585 56.9307 23.3584 56.7838 23.4917 56.9307L24.1582 57.2979C24.3582 57.4448 24.4915 57.8121 24.4915 58.0324V61.3376C24.4915 61.6314 24.3582 61.7783 24.1582 61.6314Z" fill="#2F2555" stroke="white" stroke-opacity="0.7" stroke-width="1.2" mask="url(#path-29-inside-29_1529_1577)"/>
</svg>
