<svg width="62" height="174" viewBox="0 0 62 174" fill="none" xmlns="http://www.w3.org/2000/svg">
<mask id="path-1-inside-1_1444_8934" fill="white">
<path d="M61.4511 19.5885H48.521L34.058 10.4073C32.2585 9.23215 28.9926 9.37905 26.8598 10.7746L12.93 19.5885H-0.00012207V153.707C-0.00012207 154.515 0.399794 155.249 1.26624 155.837L27.393 172.436C29.1925 173.611 32.4584 173.464 34.5912 172.142L59.6515 156.204C60.7846 155.469 61.3844 154.588 61.4511 153.707V19.5885Z"/>
</mask>
<path d="M61.4511 19.5885H48.521L34.058 10.4073C32.2585 9.23215 28.9926 9.37905 26.8598 10.7746L12.93 19.5885H-0.00012207V153.707C-0.00012207 154.515 0.399794 155.249 1.26624 155.837L27.393 172.436C29.1925 173.611 32.4584 173.464 34.5912 172.142L59.6515 156.204C60.7846 155.469 61.3844 154.588 61.4511 153.707V19.5885Z" fill="#2F2555" stroke="white" stroke-opacity="0.7" stroke-width="1.2" mask="url(#path-1-inside-1_1444_8934)"/>
<mask id="path-2-inside-2_1444_8934" fill="white">
<path d="M59.6515 155.543L34.5912 171.481C32.4584 172.803 29.1925 172.95 27.393 171.775L1.26624 155.176C0.399794 154.588 -0.00012207 153.853 -0.00012207 153.046V153.707C-0.00012207 154.515 0.399794 155.249 1.26624 155.837L27.393 172.436C29.1925 173.611 32.4584 173.464 34.5912 172.142L59.6515 156.204C60.7846 155.469 61.3844 154.588 61.4511 153.707V153.046C61.3844 153.927 60.7846 154.808 59.6515 155.543Z"/>
</mask>
<path d="M59.6515 155.543L34.5912 171.481C32.4584 172.803 29.1925 172.95 27.393 171.775L1.26624 155.176C0.399794 154.588 -0.00012207 153.853 -0.00012207 153.046V153.707C-0.00012207 154.515 0.399794 155.249 1.26624 155.837L27.393 172.436C29.1925 173.611 32.4584 173.464 34.5912 172.142L59.6515 156.204C60.7846 155.469 61.3844 154.588 61.4511 153.707V153.046C61.3844 153.927 60.7846 154.808 59.6515 155.543Z" fill="#2F2555" stroke="white" stroke-opacity="0.7" stroke-width="1.2" mask="url(#path-2-inside-2_1444_8934)"/>
<mask id="path-3-inside-3_1444_8934" fill="white">
<path d="M0.866339 154.368V20.2495H13.7964L27.6596 11.4356C29.7924 10.0401 33.0582 9.89319 34.9244 11.0684L49.3208 20.2495H61.4511V19.5885H48.521L34.058 10.4073C32.2585 9.23215 28.9926 9.37905 26.8598 10.7746L12.93 19.5885H-0.00012207V153.707C-0.00012207 154.515 0.399794 155.249 1.26624 155.837L1.39953 155.91C0.999631 155.469 0.799689 154.882 0.866339 154.368Z"/>
</mask>
<path d="M0.866339 154.368V20.2495H13.7964L27.6596 11.4356C29.7924 10.0401 33.0582 9.89319 34.9244 11.0684L49.3208 20.2495H61.4511V19.5885H48.521L34.058 10.4073C32.2585 9.23215 28.9926 9.37905 26.8598 10.7746L12.93 19.5885H-0.00012207V153.707C-0.00012207 154.515 0.399794 155.249 1.26624 155.837L1.39953 155.91C0.999631 155.469 0.799689 154.882 0.866339 154.368Z" fill="#2F2555" stroke="white" stroke-opacity="0.7" stroke-width="1.2" mask="url(#path-3-inside-3_1444_8934)"/>
<mask id="path-4-inside-4_1444_8934" fill="white">
<path d="M60.7176 20.3229V154.441C60.6732 154.931 60.451 155.42 60.0511 155.91C60.9175 155.249 61.3841 154.441 61.4507 153.707V19.6619C61.1841 19.8577 60.9398 20.0781 60.7176 20.3229Z"/>
</mask>
<path d="M60.7176 20.3229V154.441C60.6732 154.931 60.451 155.42 60.0511 155.91C60.9175 155.249 61.3841 154.441 61.4507 153.707V19.6619C61.1841 19.8577 60.9398 20.0781 60.7176 20.3229Z" fill="#2F2555" stroke="white" stroke-opacity="0.7" stroke-width="1.2" mask="url(#path-4-inside-4_1444_8934)"/>
<mask id="path-5-inside-5_1444_8934" fill="white">
<path d="M27.3926 38.3182L1.26581 21.7187C-0.600385 20.5435 -0.333794 18.4869 1.799 17.0914L26.8594 1.15291C28.9922 -0.169178 32.258 -0.316072 34.0576 0.859114L60.1843 17.4586C62.0505 18.6338 61.7839 20.6904 59.6511 22.0125L34.5908 38.0244C32.458 39.3465 29.1921 39.4934 27.3926 38.3182Z"/>
</mask>
<path d="M27.3926 38.3182L1.26581 21.7187C-0.600385 20.5435 -0.333794 18.4869 1.799 17.0914L26.8594 1.15291C28.9922 -0.169178 32.258 -0.316072 34.0576 0.859114L60.1843 17.4586C62.0505 18.6338 61.7839 20.6904 59.6511 22.0125L34.5908 38.0244C32.458 39.3465 29.1921 39.4934 27.3926 38.3182Z" fill="#2F2555" stroke="white" stroke-opacity="0.7" stroke-width="1.2" mask="url(#path-5-inside-5_1444_8934)"/>
<mask id="path-6-inside-6_1444_8934" fill="white">
<path d="M60.1846 17.4588L34.0579 0.859284C33.1248 0.198242 31.7917 -0.0221101 30.4587 0.0513391C31.3918 0.124788 32.325 0.34514 33.0581 0.859284L59.1848 17.4588C60.9844 18.634 60.7844 20.6906 58.6516 22.0126L33.5913 38.0246C32.5249 38.6121 31.2585 39.0528 29.9922 39.1263C31.5918 39.1997 33.258 38.8325 34.591 38.0246L59.6514 22.0126C61.7842 20.6906 62.0508 18.634 60.1846 17.4588Z"/>
</mask>
<path d="M60.1846 17.4588L34.0579 0.859284C33.1248 0.198242 31.7917 -0.0221101 30.4587 0.0513391C31.3918 0.124788 32.325 0.34514 33.0581 0.859284L59.1848 17.4588C60.9844 18.634 60.7844 20.6906 58.6516 22.0126L33.5913 38.0246C32.5249 38.6121 31.2585 39.0528 29.9922 39.1263C31.5918 39.1997 33.258 38.8325 34.591 38.0246L59.6514 22.0126C61.7842 20.6906 62.0508 18.634 60.1846 17.4588Z" fill="#2F2555" stroke="white" stroke-opacity="0.7" stroke-width="1.2" mask="url(#path-6-inside-6_1444_8934)"/>
<mask id="path-7-inside-7_1444_8934" fill="white">
<path d="M28.5256 38.3179L2.4655 21.7184C0.599305 20.5432 0.799263 18.4867 2.93206 17.0911L27.9924 1.15268C29.0588 0.491634 30.3252 0.124388 31.5249 0.0509389C29.9253 -0.0959594 28.1924 0.344735 26.8594 1.15268L1.799 17.0911C-0.333794 18.4867 -0.600385 20.5432 1.26581 21.7184L27.3926 38.3179C28.3257 38.9055 29.7253 39.1993 31.0583 39.1259C30.1252 39.0524 29.2588 38.7586 28.5256 38.3179Z"/>
</mask>
<path d="M28.5256 38.3179L2.4655 21.7184C0.599305 20.5432 0.799263 18.4867 2.93206 17.0911L27.9924 1.15268C29.0588 0.491634 30.3252 0.124388 31.5249 0.0509389C29.9253 -0.0959594 28.1924 0.344735 26.8594 1.15268L1.799 17.0911C-0.333794 18.4867 -0.600385 20.5432 1.26581 21.7184L27.3926 38.3179C28.3257 38.9055 29.7253 39.1993 31.0583 39.1259C30.1252 39.0524 29.2588 38.7586 28.5256 38.3179Z" fill="#2F2555" stroke="white" stroke-opacity="0.7" stroke-width="1.2" mask="url(#path-7-inside-7_1444_8934)"/>
<mask id="path-8-inside-8_1444_8934" fill="white">
<path d="M6.79797 144.452L24.4602 155.763C24.9267 156.057 25.4599 155.69 25.4599 155.102V52.6407C25.4599 52.0531 25.1933 51.539 24.7934 51.3186L7.06457 40.0075C6.59802 39.7137 6.06482 40.0809 6.06482 40.6685V143.13C6.06482 143.718 6.33142 144.232 6.79797 144.452Z"/>
</mask>
<path d="M6.79797 144.452L24.4602 155.763C24.9267 156.057 25.4599 155.69 25.4599 155.102V52.6407C25.4599 52.0531 25.1933 51.539 24.7934 51.3186L7.06457 40.0075C6.59802 39.7137 6.06482 40.0809 6.06482 40.6685V143.13C6.06482 143.718 6.33142 144.232 6.79797 144.452Z" fill="#2F2555" stroke="white" stroke-opacity="0.7" stroke-width="1.2" mask="url(#path-8-inside-8_1444_8934)"/>
<mask id="path-9-inside-9_1444_8934" fill="white">
<path d="M6.59791 39.9338C6.46461 40.0807 6.39795 40.2276 6.39795 40.5214V142.983C6.39795 143.571 6.66455 144.085 7.06445 144.305L24.7933 155.616C24.9266 155.714 25.0599 155.739 25.1932 155.69C24.9933 155.837 24.7267 155.91 24.4601 155.763L6.79785 144.452C6.3313 144.232 6.0647 143.717 6.0647 143.13V40.6683C6.0647 40.3011 6.33131 40.0073 6.59791 39.9338Z"/>
</mask>
<path d="M6.59791 39.9338C6.46461 40.0807 6.39795 40.2276 6.39795 40.5214V142.983C6.39795 143.571 6.66455 144.085 7.06445 144.305L24.7933 155.616C24.9266 155.714 25.0599 155.739 25.1932 155.69C24.9933 155.837 24.7267 155.91 24.4601 155.763L6.79785 144.452C6.3313 144.232 6.0647 143.717 6.0647 143.13V40.6683C6.0647 40.3011 6.33131 40.0073 6.59791 39.9338Z" fill="#2F2555" stroke="white" stroke-opacity="0.7" stroke-width="1.2" mask="url(#path-9-inside-9_1444_8934)"/>
<mask id="path-10-inside-10_1444_8934" fill="white">
<path d="M22.394 69.8279L9.19733 61.4547C8.93073 61.3078 8.79742 60.9406 8.79742 60.5733V59.3247C8.79742 59.0309 8.93073 58.884 9.19733 58.9574L22.394 67.4041C22.5939 67.551 22.7939 67.9182 22.7939 68.212V69.5341C22.7939 69.8279 22.5939 69.9748 22.394 69.8279Z"/>
</mask>
<path d="M22.394 69.8279L9.19733 61.4547C8.93073 61.3078 8.79742 60.9406 8.79742 60.5733V59.3247C8.79742 59.0309 8.93073 58.884 9.19733 58.9574L22.394 67.4041C22.5939 67.551 22.7939 67.9182 22.7939 68.212V69.5341C22.7939 69.8279 22.5939 69.9748 22.394 69.8279Z" fill="#2F2555" stroke="white" stroke-opacity="0.7" stroke-width="1.2" mask="url(#path-10-inside-10_1444_8934)"/>
<mask id="path-11-inside-11_1444_8934" fill="white">
<path d="M9.73052 61.0875C9.46392 60.9406 9.33062 60.5733 9.33062 60.2795V59.1043L9.19733 58.9574C8.93073 58.884 8.79742 59.0309 8.79742 59.3247V60.5733C8.79742 60.9406 8.93073 61.3078 9.19733 61.4547L22.394 69.8279C22.5939 69.9748 22.7939 69.8279 22.7939 69.5341V69.3872L9.73052 61.0875Z"/>
</mask>
<path d="M9.73052 61.0875C9.46392 60.9406 9.33062 60.5733 9.33062 60.2795V59.1043L9.19733 58.9574C8.93073 58.884 8.79742 59.0309 8.79742 59.3247V60.5733C8.79742 60.9406 8.93073 61.3078 9.19733 61.4547L22.394 69.8279C22.5939 69.9748 22.7939 69.8279 22.7939 69.5341V69.3872L9.73052 61.0875Z" fill="#2F2555" stroke="white" stroke-opacity="0.7" stroke-width="1.2" mask="url(#path-11-inside-11_1444_8934)"/>
<mask id="path-12-inside-12_1444_8934" fill="white">
<path d="M22.3941 73.5005L9.19739 65.1273C8.93079 64.9804 8.79749 64.6132 8.79749 64.2459V62.9973C8.79749 62.7035 8.93079 62.5566 9.19739 62.63L22.3941 71.0767C22.594 71.2236 22.794 71.5908 22.794 71.8846V73.2067C22.794 73.5005 22.594 73.6474 22.3941 73.5005Z"/>
</mask>
<path d="M22.3941 73.5005L9.19739 65.1273C8.93079 64.9804 8.79749 64.6132 8.79749 64.2459V62.9973C8.79749 62.7035 8.93079 62.5566 9.19739 62.63L22.3941 71.0767C22.594 71.2236 22.794 71.5908 22.794 71.8846V73.2067C22.794 73.5005 22.594 73.6474 22.3941 73.5005Z" fill="#2F2555" stroke="white" stroke-opacity="0.7" stroke-width="1.2" mask="url(#path-12-inside-12_1444_8934)"/>
<mask id="path-13-inside-13_1444_8934" fill="white">
<path d="M9.73058 64.7601C9.46398 64.6132 9.33068 64.2459 9.33068 63.9521V62.777L9.19739 62.63C8.93079 62.5566 8.79749 62.7035 8.79749 62.9973V64.2459C8.79749 64.6132 8.93079 64.9804 9.19739 65.1273L22.3941 73.5005C22.594 73.6474 22.794 73.5005 22.794 73.2067V73.0598L9.73058 64.7601Z"/>
</mask>
<path d="M9.73058 64.7601C9.46398 64.6132 9.33068 64.2459 9.33068 63.9521V62.777L9.19739 62.63C8.93079 62.5566 8.79749 62.7035 8.79749 62.9973V64.2459C8.79749 64.6132 8.93079 64.9804 9.19739 65.1273L22.3941 73.5005C22.594 73.6474 22.794 73.5005 22.794 73.2067V73.0598L9.73058 64.7601Z" fill="#2F2555" stroke="white" stroke-opacity="0.7" stroke-width="1.2" mask="url(#path-13-inside-13_1444_8934)"/>
<mask id="path-14-inside-14_1444_8934" fill="white">
<path d="M22.3941 77.173L9.19739 68.7998C8.93079 68.6529 8.79749 68.2857 8.79749 67.9184V66.6698C8.79749 66.376 8.93079 66.2291 9.19739 66.3025L22.3941 74.7492C22.594 74.8961 22.794 75.2633 22.794 75.5571V76.8792C22.794 77.173 22.594 77.3199 22.3941 77.173Z"/>
</mask>
<path d="M22.3941 77.173L9.19739 68.7998C8.93079 68.6529 8.79749 68.2857 8.79749 67.9184V66.6698C8.79749 66.376 8.93079 66.2291 9.19739 66.3025L22.3941 74.7492C22.594 74.8961 22.794 75.2633 22.794 75.5571V76.8792C22.794 77.173 22.594 77.3199 22.3941 77.173Z" fill="#2F2555" stroke="white" stroke-opacity="0.7" stroke-width="1.2" mask="url(#path-14-inside-14_1444_8934)"/>
<mask id="path-15-inside-15_1444_8934" fill="white">
<path d="M9.73058 68.4326C9.46398 68.2857 9.33068 67.9184 9.33068 67.6246V66.4494L9.19739 66.3025C8.93079 66.2291 8.79749 66.376 8.79749 66.6698V67.9184C8.79749 68.2857 8.93079 68.6529 9.19739 68.7998L22.3941 77.173C22.594 77.3199 22.794 77.173 22.794 76.8792V76.7323L9.73058 68.4326Z"/>
</mask>
<path d="M9.73058 68.4326C9.46398 68.2857 9.33068 67.9184 9.33068 67.6246V66.4494L9.19739 66.3025C8.93079 66.2291 8.79749 66.376 8.79749 66.6698V67.9184C8.79749 68.2857 8.93079 68.6529 9.19739 68.7998L22.3941 77.173C22.594 77.3199 22.794 77.173 22.794 76.8792V76.7323L9.73058 68.4326Z" fill="#2F2555" stroke="white" stroke-opacity="0.7" stroke-width="1.2" mask="url(#path-15-inside-15_1444_8934)"/>
<mask id="path-16-inside-16_1444_8934" fill="white">
<path d="M22.3941 80.8452L9.19739 72.472C8.93079 72.3251 8.79749 71.9579 8.79749 71.5907V70.342C8.79749 70.0482 8.93079 69.9013 9.19739 70.0482L22.3941 78.4214C22.594 78.5683 22.794 78.9356 22.794 79.2294V80.5514C22.794 80.8452 22.594 80.9921 22.3941 80.8452Z"/>
</mask>
<path d="M22.3941 80.8452L9.19739 72.472C8.93079 72.3251 8.79749 71.9579 8.79749 71.5907V70.342C8.79749 70.0482 8.93079 69.9013 9.19739 70.0482L22.3941 78.4214C22.594 78.5683 22.794 78.9356 22.794 79.2294V80.5514C22.794 80.8452 22.594 80.9921 22.3941 80.8452Z" fill="#2F2555" stroke="white" stroke-opacity="0.7" stroke-width="1.2" mask="url(#path-16-inside-16_1444_8934)"/>
<mask id="path-17-inside-17_1444_8934" fill="white">
<path d="M9.73058 72.1048C9.46398 71.9579 9.33068 71.5906 9.33068 71.2969V70.1217L9.19739 70.0482C8.93079 69.9013 8.79749 70.0482 8.79749 70.342V71.5907C8.79749 71.9579 8.93079 72.3251 9.19739 72.472L22.3941 80.8452C22.594 80.9921 22.794 80.8452 22.794 80.5514V80.4046L9.73058 72.1048Z"/>
</mask>
<path d="M9.73058 72.1048C9.46398 71.9579 9.33068 71.5906 9.33068 71.2969V70.1217L9.19739 70.0482C8.93079 69.9013 8.79749 70.0482 8.79749 70.342V71.5907C8.79749 71.9579 8.93079 72.3251 9.19739 72.472L22.3941 80.8452C22.594 80.9921 22.794 80.8452 22.794 80.5514V80.4046L9.73058 72.1048Z" fill="#2F2555" stroke="white" stroke-opacity="0.7" stroke-width="1.2" mask="url(#path-17-inside-17_1444_8934)"/>
<mask id="path-18-inside-18_1444_8934" fill="white">
<path d="M22.3941 88.484L9.19739 80.1108C8.93079 79.9639 8.79749 79.5967 8.79749 79.2294V77.9808C8.79749 77.6135 8.93079 77.4666 9.19739 77.6135L22.3941 85.9867C22.594 86.1336 22.794 86.5743 22.794 86.8681V88.1168C22.794 88.484 22.594 88.6309 22.3941 88.484Z"/>
</mask>
<path d="M22.3941 88.484L9.19739 80.1108C8.93079 79.9639 8.79749 79.5967 8.79749 79.2294V77.9808C8.79749 77.6135 8.93079 77.4666 9.19739 77.6135L22.3941 85.9867C22.594 86.1336 22.794 86.5743 22.794 86.8681V88.1168C22.794 88.484 22.594 88.6309 22.3941 88.484Z" fill="#2F2555" stroke="white" stroke-opacity="0.7" stroke-width="1.2" mask="url(#path-18-inside-18_1444_8934)"/>
<mask id="path-19-inside-19_1444_8934" fill="white">
<path d="M9.73058 79.7436C9.46398 79.5967 9.33068 79.2294 9.33068 78.8622V77.687L9.19739 77.6135C8.93079 77.4666 8.79749 77.6135 8.79749 77.9808V79.2294C8.79749 79.5967 8.93079 79.9639 9.19739 80.1108L22.3941 88.484C22.594 88.6309 22.794 88.484 22.794 88.1168V88.0433L9.73058 79.7436Z"/>
</mask>
<path d="M9.73058 79.7436C9.46398 79.5967 9.33068 79.2294 9.33068 78.8622V77.687L9.19739 77.6135C8.93079 77.4666 8.79749 77.6135 8.79749 77.9808V79.2294C8.79749 79.5967 8.93079 79.9639 9.19739 80.1108L22.3941 88.484C22.594 88.6309 22.794 88.484 22.794 88.1168V88.0433L9.73058 79.7436Z" fill="#2F2555" stroke="white" stroke-opacity="0.7" stroke-width="1.2" mask="url(#path-19-inside-19_1444_8934)"/>
<mask id="path-20-inside-20_1444_8934" fill="white">
<path d="M22.3941 92.1566L9.19745 83.7834C8.93085 83.6365 8.79755 83.2693 8.79755 82.902V81.6534C8.79755 81.2862 8.93085 81.1393 9.19745 81.2862L22.3941 89.6593C22.5941 89.8062 22.794 90.2469 22.794 90.5407V91.7894C22.794 92.1566 22.5941 92.3035 22.3941 92.1566Z"/>
</mask>
<path d="M22.3941 92.1566L9.19745 83.7834C8.93085 83.6365 8.79755 83.2693 8.79755 82.902V81.6534C8.79755 81.2862 8.93085 81.1393 9.19745 81.2862L22.3941 89.6593C22.5941 89.8062 22.794 90.2469 22.794 90.5407V91.7894C22.794 92.1566 22.5941 92.3035 22.3941 92.1566Z" fill="#2F2555" stroke="white" stroke-opacity="0.7" stroke-width="1.2" mask="url(#path-20-inside-20_1444_8934)"/>
<mask id="path-21-inside-21_1444_8934" fill="white">
<path d="M9.73064 83.4162C9.46404 83.2693 9.33074 82.902 9.33074 82.6082V81.3596L9.19745 81.2862C8.93085 81.1393 8.79755 81.2862 8.79755 81.6534V82.902C8.79755 83.2693 8.93085 83.6365 9.19745 83.7834L22.3941 92.1566C22.5941 92.3035 22.794 92.1566 22.794 91.7894V91.7159L9.73064 83.4162Z"/>
</mask>
<path d="M9.73064 83.4162C9.46404 83.2693 9.33074 82.902 9.33074 82.6082V81.3596L9.19745 81.2862C8.93085 81.1393 8.79755 81.2862 8.79755 81.6534V82.902C8.79755 83.2693 8.93085 83.6365 9.19745 83.7834L22.3941 92.1566C22.5941 92.3035 22.794 92.1566 22.794 91.7894V91.7159L9.73064 83.4162Z" fill="#2F2555" stroke="white" stroke-opacity="0.7" stroke-width="1.2" mask="url(#path-21-inside-21_1444_8934)"/>
<mask id="path-22-inside-22_1444_8934" fill="white">
<path d="M22.3941 95.829L9.19745 87.4558C8.93085 87.3089 8.79755 86.9416 8.79755 86.5744V85.3258C8.79755 84.9585 8.93085 84.8116 9.19745 84.9585L22.3941 93.4052C22.5941 93.4786 22.794 93.9193 22.794 94.2131V95.4618C22.794 95.829 22.5941 95.9759 22.3941 95.829Z"/>
</mask>
<path d="M22.3941 95.829L9.19745 87.4558C8.93085 87.3089 8.79755 86.9416 8.79755 86.5744V85.3258C8.79755 84.9585 8.93085 84.8116 9.19745 84.9585L22.3941 93.4052C22.5941 93.4786 22.794 93.9193 22.794 94.2131V95.4618C22.794 95.829 22.5941 95.9759 22.3941 95.829Z" fill="#2F2555" stroke="white" stroke-opacity="0.7" stroke-width="1.2" mask="url(#path-22-inside-22_1444_8934)"/>
<mask id="path-23-inside-23_1444_8934" fill="white">
<path d="M9.73064 87.0885C9.46404 86.9416 9.33074 86.5744 9.33074 86.2806V85.032L9.19745 84.9585C8.93085 84.8116 8.79755 84.9585 8.79755 85.3258V86.5744C8.79755 86.9416 8.93085 87.3089 9.19745 87.4558L22.3941 95.829C22.5941 95.9759 22.794 95.829 22.794 95.4618V95.3883L9.73064 87.0885Z"/>
</mask>
<path d="M9.73064 87.0885C9.46404 86.9416 9.33074 86.5744 9.33074 86.2806V85.032L9.19745 84.9585C8.93085 84.8116 8.79755 84.9585 8.79755 85.3258V86.5744C8.79755 86.9416 8.93085 87.3089 9.19745 87.4558L22.3941 95.829C22.5941 95.9759 22.794 95.829 22.794 95.4618V95.3883L9.73064 87.0885Z" fill="#2F2555" stroke="white" stroke-opacity="0.7" stroke-width="1.2" mask="url(#path-23-inside-23_1444_8934)"/>
<mask id="path-24-inside-24_1444_8934" fill="white">
<path d="M22.3941 99.502L9.19745 91.1288C8.93085 90.9819 8.79755 90.6146 8.79755 90.2474V88.9987C8.79755 88.6315 8.93085 88.4846 9.19745 88.6315L22.3941 97.0781C22.5941 97.1516 22.794 97.5923 22.794 97.8861V99.1347C22.794 99.502 22.5941 99.6489 22.3941 99.502Z"/>
</mask>
<path d="M22.3941 99.502L9.19745 91.1288C8.93085 90.9819 8.79755 90.6146 8.79755 90.2474V88.9987C8.79755 88.6315 8.93085 88.4846 9.19745 88.6315L22.3941 97.0781C22.5941 97.1516 22.794 97.5923 22.794 97.8861V99.1347C22.794 99.502 22.5941 99.6489 22.3941 99.502Z" fill="#2F2555" stroke="white" stroke-opacity="0.7" stroke-width="1.2" mask="url(#path-24-inside-24_1444_8934)"/>
<mask id="path-25-inside-25_1444_8934" fill="white">
<path d="M9.73064 90.7615C9.46404 90.6146 9.33074 90.2474 9.33074 89.9536V88.7049L9.19745 88.6315C8.93085 88.4846 8.79755 88.6315 8.79755 88.9987V90.2474C8.79755 90.6146 8.93085 90.9819 9.19745 91.1288L22.3941 99.502C22.5941 99.6489 22.794 99.502 22.794 99.1347V99.0613L9.73064 90.7615Z"/>
</mask>
<path d="M9.73064 90.7615C9.46404 90.6146 9.33074 90.2474 9.33074 89.9536V88.7049L9.19745 88.6315C8.93085 88.4846 8.79755 88.6315 8.79755 88.9987V90.2474C8.79755 90.6146 8.93085 90.9819 9.19745 91.1288L22.3941 99.502C22.5941 99.6489 22.794 99.502 22.794 99.1347V99.0613L9.73064 90.7615Z" fill="#2F2555" stroke="white" stroke-opacity="0.7" stroke-width="1.2" mask="url(#path-25-inside-25_1444_8934)"/>
<mask id="path-26-inside-26_1444_8934" fill="white">
<path d="M22.3941 107.14L9.19739 98.6937C8.93079 98.5469 8.79749 98.1796 8.79749 97.8858V96.6372C8.79749 96.2699 8.93079 96.123 9.19739 96.2699L22.3941 104.643C22.594 104.79 22.794 105.157 22.794 105.525V106.773C22.794 107.067 22.594 107.287 22.3941 107.14Z"/>
</mask>
<path d="M22.3941 107.14L9.19739 98.6937C8.93079 98.5469 8.79749 98.1796 8.79749 97.8858V96.6372C8.79749 96.2699 8.93079 96.123 9.19739 96.2699L22.3941 104.643C22.594 104.79 22.794 105.157 22.794 105.525V106.773C22.794 107.067 22.594 107.287 22.3941 107.14Z" fill="#2F2555" stroke="white" stroke-opacity="0.7" stroke-width="1.2" mask="url(#path-26-inside-26_1444_8934)"/>
<mask id="path-27-inside-27_1444_8934" fill="white">
<path d="M9.73058 98.4C9.46398 98.2531 9.33068 97.8858 9.33068 97.5186V96.3434L9.19739 96.2699C8.93079 96.123 8.79749 96.2699 8.79749 96.6372V97.8858C8.79749 98.1796 8.93079 98.5469 9.19739 98.6937L22.3941 107.14C22.594 107.287 22.794 107.067 22.794 106.773V106.7L9.73058 98.4Z"/>
</mask>
<path d="M9.73058 98.4C9.46398 98.2531 9.33068 97.8858 9.33068 97.5186V96.3434L9.19739 96.2699C8.93079 96.123 8.79749 96.2699 8.79749 96.6372V97.8858C8.79749 98.1796 8.93079 98.5469 9.19739 98.6937L22.3941 107.14C22.594 107.287 22.794 107.067 22.794 106.773V106.7L9.73058 98.4Z" fill="#2F2555" stroke="white" stroke-opacity="0.7" stroke-width="1.2" mask="url(#path-27-inside-27_1444_8934)"/>
<mask id="path-28-inside-28_1444_8934" fill="white">
<path d="M22.3941 110.813L9.19745 102.366C8.93085 102.219 8.79755 101.852 8.79755 101.558V100.31C8.79755 99.9424 8.93085 99.7955 9.19745 99.9424L22.3941 108.316C22.5941 108.463 22.794 108.83 22.794 109.197V110.446C22.794 110.813 22.5941 110.96 22.3941 110.813Z"/>
</mask>
<path d="M22.3941 110.813L9.19745 102.366C8.93085 102.219 8.79755 101.852 8.79755 101.558V100.31C8.79755 99.9424 8.93085 99.7955 9.19745 99.9424L22.3941 108.316C22.5941 108.463 22.794 108.83 22.794 109.197V110.446C22.794 110.813 22.5941 110.96 22.3941 110.813Z" fill="#2F2555" stroke="white" stroke-opacity="0.7" stroke-width="1.2" mask="url(#path-28-inside-28_1444_8934)"/>
<mask id="path-29-inside-29_1444_8934" fill="white">
<path d="M9.73064 102.072C9.46404 101.926 9.33074 101.558 9.33074 101.191V100.016L9.19745 99.9424C8.93085 99.7955 8.79755 99.9424 8.79755 100.31V101.558C8.79755 101.852 8.93085 102.219 9.19745 102.366L22.3941 110.813C22.5941 110.96 22.794 110.813 22.794 110.446V110.372L9.73064 102.072Z"/>
</mask>
<path d="M9.73064 102.072C9.46404 101.926 9.33074 101.558 9.33074 101.191V100.016L9.19745 99.9424C8.93085 99.7955 8.79755 99.9424 8.79755 100.31V101.558C8.79755 101.852 8.93085 102.219 9.19745 102.366L22.3941 110.813C22.5941 110.96 22.794 110.813 22.794 110.446V110.372L9.73064 102.072Z" fill="#2F2555" stroke="white" stroke-opacity="0.7" stroke-width="1.2" mask="url(#path-29-inside-29_1444_8934)"/>
<mask id="path-30-inside-30_1444_8934" fill="white">
<path d="M22.3941 114.485L9.19745 106.039C8.93085 105.892 8.79755 105.524 8.79755 105.231V103.982C8.79755 103.615 8.93085 103.468 9.19745 103.615L22.3941 111.988C22.5941 112.135 22.794 112.502 22.794 112.869V114.118C22.794 114.485 22.5941 114.632 22.3941 114.485Z"/>
</mask>
<path d="M22.3941 114.485L9.19745 106.039C8.93085 105.892 8.79755 105.524 8.79755 105.231V103.982C8.79755 103.615 8.93085 103.468 9.19745 103.615L22.3941 111.988C22.5941 112.135 22.794 112.502 22.794 112.869V114.118C22.794 114.485 22.5941 114.632 22.3941 114.485Z" fill="#2F2555" stroke="white" stroke-opacity="0.7" stroke-width="1.2" mask="url(#path-30-inside-30_1444_8934)"/>
<mask id="path-31-inside-31_1444_8934" fill="white">
<path d="M9.73064 105.745C9.46404 105.598 9.33074 105.231 9.33074 104.863V103.688L9.19745 103.615C8.93085 103.468 8.79755 103.615 8.79755 103.982V105.231C8.79755 105.524 8.93085 105.892 9.19745 106.039L22.3941 114.485C22.5941 114.632 22.794 114.485 22.794 114.118V114.045L9.73064 105.745Z"/>
</mask>
<path d="M9.73064 105.745C9.46404 105.598 9.33074 105.231 9.33074 104.863V103.688L9.19745 103.615C8.93085 103.468 8.79755 103.615 8.79755 103.982V105.231C8.79755 105.524 8.93085 105.892 9.19745 106.039L22.3941 114.485C22.5941 114.632 22.794 114.485 22.794 114.118V114.045L9.73064 105.745Z" fill="#2F2555" stroke="white" stroke-opacity="0.7" stroke-width="1.2" mask="url(#path-31-inside-31_1444_8934)"/>
<mask id="path-32-inside-32_1444_8934" fill="white">
<path d="M22.3941 118.158L9.19745 109.711C8.93085 109.564 8.79755 109.197 8.79755 108.903V107.654C8.79755 107.287 8.93085 107.14 9.19745 107.287L22.3941 115.66C22.5941 115.807 22.794 116.175 22.794 116.542V117.79C22.794 118.158 22.5941 118.305 22.3941 118.158Z"/>
</mask>
<path d="M22.3941 118.158L9.19745 109.711C8.93085 109.564 8.79755 109.197 8.79755 108.903V107.654C8.79755 107.287 8.93085 107.14 9.19745 107.287L22.3941 115.66C22.5941 115.807 22.794 116.175 22.794 116.542V117.79C22.794 118.158 22.5941 118.305 22.3941 118.158Z" fill="#2F2555" stroke="white" stroke-opacity="0.7" stroke-width="1.2" mask="url(#path-32-inside-32_1444_8934)"/>
<mask id="path-33-inside-33_1444_8934" fill="white">
<path d="M9.73064 109.417C9.46404 109.27 9.33074 108.903 9.33074 108.536V107.361L9.19745 107.287C8.93085 107.14 8.79755 107.287 8.79755 107.654V108.903C8.79755 109.197 8.93085 109.564 9.19745 109.711L22.3941 118.158C22.5941 118.305 22.794 118.158 22.794 117.79V117.717L9.73064 109.417Z"/>
</mask>
<path d="M9.73064 109.417C9.46404 109.27 9.33074 108.903 9.33074 108.536V107.361L9.19745 107.287C8.93085 107.14 8.79755 107.287 8.79755 107.654V108.903C8.79755 109.197 8.93085 109.564 9.19745 109.711L22.3941 118.158C22.5941 118.305 22.794 118.158 22.794 117.79V117.717L9.73064 109.417Z" fill="#2F2555" stroke="white" stroke-opacity="0.7" stroke-width="1.2" mask="url(#path-33-inside-33_1444_8934)"/>
<mask id="path-34-inside-34_1444_8934" fill="white">
<path d="M22.3941 125.723L9.19739 117.35C8.93079 117.203 8.79749 116.836 8.79749 116.542V115.22C8.79749 114.926 8.93079 114.779 9.19739 114.926L22.3941 123.299C22.594 123.446 22.794 123.813 22.794 124.181V125.429C22.794 125.723 22.594 125.87 22.3941 125.723Z"/>
</mask>
<path d="M22.3941 125.723L9.19739 117.35C8.93079 117.203 8.79749 116.836 8.79749 116.542V115.22C8.79749 114.926 8.93079 114.779 9.19739 114.926L22.3941 123.299C22.594 123.446 22.794 123.813 22.794 124.181V125.429C22.794 125.723 22.594 125.87 22.3941 125.723Z" fill="#2F2555" stroke="white" stroke-opacity="0.7" stroke-width="1.2" mask="url(#path-34-inside-34_1444_8934)"/>
<mask id="path-35-inside-35_1444_8934" fill="white">
<path d="M9.73058 117.056C9.46398 116.909 9.33068 116.468 9.33068 116.175V114.999L9.19739 114.926C8.93079 114.779 8.79749 114.926 8.79749 115.22V116.542C8.79749 116.836 8.93079 117.203 9.19739 117.35L22.3941 125.723C22.594 125.87 22.794 125.723 22.794 125.429V125.356L9.73058 117.056Z"/>
</mask>
<path d="M9.73058 117.056C9.46398 116.909 9.33068 116.468 9.33068 116.175V114.999L9.19739 114.926C8.93079 114.779 8.79749 114.926 8.79749 115.22V116.542C8.79749 116.836 8.93079 117.203 9.19739 117.35L22.3941 125.723C22.594 125.87 22.794 125.723 22.794 125.429V125.356L9.73058 117.056Z" fill="#2F2555" stroke="white" stroke-opacity="0.7" stroke-width="1.2" mask="url(#path-35-inside-35_1444_8934)"/>
<mask id="path-36-inside-36_1444_8934" fill="white">
<path d="M22.3941 129.395L9.19745 121.022C8.93085 120.875 8.79755 120.508 8.79755 120.214V118.892C8.79755 118.598 8.93085 118.451 9.19745 118.598L22.3941 126.971C22.5941 127.118 22.794 127.486 22.794 127.853V129.101C22.794 129.395 22.5941 129.542 22.3941 129.395Z"/>
</mask>
<path d="M22.3941 129.395L9.19745 121.022C8.93085 120.875 8.79755 120.508 8.79755 120.214V118.892C8.79755 118.598 8.93085 118.451 9.19745 118.598L22.3941 126.971C22.5941 127.118 22.794 127.486 22.794 127.853V129.101C22.794 129.395 22.5941 129.542 22.3941 129.395Z" fill="#2F2555" stroke="white" stroke-opacity="0.7" stroke-width="1.2" mask="url(#path-36-inside-36_1444_8934)"/>
<mask id="path-37-inside-37_1444_8934" fill="white">
<path d="M9.73064 120.728C9.46404 120.581 9.33074 120.141 9.33074 119.847V118.672L9.19745 118.598C8.93085 118.451 8.79755 118.598 8.79755 118.892V120.214C8.79755 120.508 8.93085 120.875 9.19745 121.022L22.3941 129.395C22.5941 129.542 22.794 129.395 22.794 129.101V129.028L9.73064 120.728Z"/>
</mask>
<path d="M9.73064 120.728C9.46404 120.581 9.33074 120.141 9.33074 119.847V118.672L9.19745 118.598C8.93085 118.451 8.79755 118.598 8.79755 118.892V120.214C8.79755 120.508 8.93085 120.875 9.19745 121.022L22.3941 129.395C22.5941 129.542 22.794 129.395 22.794 129.101V129.028L9.73064 120.728Z" fill="#2F2555" stroke="white" stroke-opacity="0.7" stroke-width="1.2" mask="url(#path-37-inside-37_1444_8934)"/>
<mask id="path-38-inside-38_1444_8934" fill="white">
<path d="M22.3941 133.068L9.19745 124.694C8.93085 124.548 8.79755 124.18 8.79755 123.887V122.564C8.79755 122.271 8.93085 122.124 9.19745 122.271L22.3941 130.644C22.5941 130.791 22.794 131.158 22.794 131.525V132.774C22.794 133.068 22.5941 133.215 22.3941 133.068Z"/>
</mask>
<path d="M22.3941 133.068L9.19745 124.694C8.93085 124.548 8.79755 124.18 8.79755 123.887V122.564C8.79755 122.271 8.93085 122.124 9.19745 122.271L22.3941 130.644C22.5941 130.791 22.794 131.158 22.794 131.525V132.774C22.794 133.068 22.5941 133.215 22.3941 133.068Z" fill="#2F2555" stroke="white" stroke-opacity="0.7" stroke-width="1.2" mask="url(#path-38-inside-38_1444_8934)"/>
<mask id="path-39-inside-39_1444_8934" fill="white">
<path d="M9.73064 124.401C9.46404 124.254 9.33074 123.813 9.33074 123.519V122.344L9.19745 122.271C8.93085 122.124 8.79755 122.271 8.79755 122.564V123.887C8.79755 124.18 8.93085 124.548 9.19745 124.694L22.3941 133.068C22.5941 133.215 22.794 133.068 22.794 132.774V132.7L9.73064 124.401Z"/>
</mask>
<path d="M9.73064 124.401C9.46404 124.254 9.33074 123.813 9.33074 123.519V122.344L9.19745 122.271C8.93085 122.124 8.79755 122.271 8.79755 122.564V123.887C8.79755 124.18 8.93085 124.548 9.19745 124.694L22.3941 133.068C22.5941 133.215 22.794 133.068 22.794 132.774V132.7L9.73064 124.401Z" fill="#2F2555" stroke="white" stroke-opacity="0.7" stroke-width="1.2" mask="url(#path-39-inside-39_1444_8934)"/>
<mask id="path-40-inside-40_1444_8934" fill="white">
<path d="M22.3941 136.74L9.19745 128.367C8.93085 128.22 8.79755 127.853 8.79755 127.559V126.237C8.79755 125.943 8.93085 125.796 9.19745 125.943L22.3941 134.316C22.5941 134.463 22.794 134.83 22.794 135.198V136.446C22.794 136.74 22.5941 136.887 22.3941 136.74Z"/>
</mask>
<path d="M22.3941 136.74L9.19745 128.367C8.93085 128.22 8.79755 127.853 8.79755 127.559V126.237C8.79755 125.943 8.93085 125.796 9.19745 125.943L22.3941 134.316C22.5941 134.463 22.794 134.83 22.794 135.198V136.446C22.794 136.74 22.5941 136.887 22.3941 136.74Z" fill="#2F2555" stroke="white" stroke-opacity="0.7" stroke-width="1.2" mask="url(#path-40-inside-40_1444_8934)"/>
<mask id="path-41-inside-41_1444_8934" fill="white">
<path d="M9.73064 128.073C9.46404 127.926 9.33074 127.559 9.33074 127.192V126.017L9.19745 125.943C8.93085 125.796 8.79755 125.943 8.79755 126.237V127.559C8.79755 127.853 8.93085 128.22 9.19745 128.367L22.3941 136.74C22.5941 136.887 22.794 136.74 22.794 136.446V136.373L9.73064 128.073Z"/>
</mask>
<path d="M9.73064 128.073C9.46404 127.926 9.33074 127.559 9.33074 127.192V126.017L9.19745 125.943C8.93085 125.796 8.79755 125.943 8.79755 126.237V127.559C8.79755 127.853 8.93085 128.22 9.19745 128.367L22.3941 136.74C22.5941 136.887 22.794 136.74 22.794 136.446V136.373L9.73064 128.073Z" fill="#2F2555" stroke="white" stroke-opacity="0.7" stroke-width="1.2" mask="url(#path-41-inside-41_1444_8934)"/>
<mask id="path-42-inside-42_1444_8934" fill="white">
<path d="M38.7899 12.5375L28.1259 5.78018C27.8593 5.63328 27.9259 5.41292 28.1925 5.19257C28.4591 5.04567 28.7924 5.04567 29.059 5.19257L39.723 11.9499C39.9229 12.0968 39.9229 12.3906 39.6563 12.5375C39.3897 12.6844 38.9898 12.6844 38.7899 12.5375Z"/>
</mask>
<path d="M38.7899 12.5375L28.1259 5.78018C27.8593 5.63328 27.9259 5.41292 28.1925 5.19257C28.4591 5.04567 28.7924 5.04567 29.059 5.19257L39.723 11.9499C39.9229 12.0968 39.9229 12.3906 39.6563 12.5375C39.3897 12.6844 38.9898 12.6844 38.7899 12.5375Z" fill="#2F2555" stroke="white" stroke-opacity="0.7" stroke-width="1.2" mask="url(#path-42-inside-42_1444_8934)"/>
<mask id="path-43-inside-43_1444_8934" fill="white">
<path d="M28.0595 5.70672C28.0595 5.65776 28.104 5.60878 28.1928 5.55982C28.4594 5.41292 28.7927 5.41292 29.0593 5.55982L39.7233 12.3171C39.7233 12.3661 39.7455 12.3906 39.7899 12.3906C39.9232 12.2437 39.8566 12.0968 39.7233 11.9499L29.0593 5.19257C28.7927 5.04567 28.4594 5.04567 28.1928 5.19257C27.9262 5.33947 27.9262 5.55983 28.0595 5.70672Z"/>
</mask>
<path d="M28.0595 5.70672C28.0595 5.65776 28.104 5.60878 28.1928 5.55982C28.4594 5.41292 28.7927 5.41292 29.0593 5.55982L39.7233 12.3171C39.7233 12.3661 39.7455 12.3906 39.7899 12.3906C39.9232 12.2437 39.8566 12.0968 39.7233 11.9499L29.0593 5.19257C28.7927 5.04567 28.4594 5.04567 28.1928 5.19257C27.9262 5.33947 27.9262 5.55983 28.0595 5.70672Z" fill="#2F2555" stroke="white" stroke-opacity="0.7" stroke-width="1.2" mask="url(#path-43-inside-43_1444_8934)"/>
<mask id="path-44-inside-44_1444_8934" fill="white">
<path d="M36.8571 13.7863L26.1931 6.95552C25.9932 6.88207 25.9932 6.58826 26.2598 6.44137C26.5264 6.29447 26.9263 6.22101 27.1262 6.36791L37.7902 13.1987C38.0568 13.3456 37.9902 13.5659 37.7236 13.7128C37.457 13.9332 37.057 13.9332 36.8571 13.7863Z"/>
</mask>
<path d="M36.8571 13.7863L26.1931 6.95552C25.9932 6.88207 25.9932 6.58826 26.2598 6.44137C26.5264 6.29447 26.9263 6.22101 27.1262 6.36791L37.7902 13.1987C38.0568 13.3456 37.9902 13.5659 37.7236 13.7128C37.457 13.9332 37.057 13.9332 36.8571 13.7863Z" fill="#2F2555" stroke="white" stroke-opacity="0.7" stroke-width="1.2" mask="url(#path-44-inside-44_1444_8934)"/>
<mask id="path-45-inside-45_1444_8934" fill="white">
<path d="M34.9245 14.9613L24.2605 8.20398C24.0606 8.05709 24.1272 7.83675 24.3271 7.6164C24.5937 7.4695 24.9937 7.4695 25.2603 7.6164L35.9242 14.3737C36.1242 14.5206 36.0575 14.8144 35.8576 14.9613C35.591 15.1082 35.1911 15.1082 34.9245 14.9613Z"/>
</mask>
<path d="M34.9245 14.9613L24.2605 8.20398C24.0606 8.05709 24.1272 7.83675 24.3271 7.6164C24.5937 7.4695 24.9937 7.4695 25.2603 7.6164L35.9242 14.3737C36.1242 14.5206 36.0575 14.8144 35.8576 14.9613C35.591 15.1082 35.1911 15.1082 34.9245 14.9613Z" fill="#2F2555" stroke="white" stroke-opacity="0.7" stroke-width="1.2" mask="url(#path-45-inside-45_1444_8934)"/>
<mask id="path-46-inside-46_1444_8934" fill="white">
<path d="M33.0584 16.21L22.3944 9.45266C22.1278 9.30577 22.1944 9.01196 22.461 8.86506C22.7276 8.71816 23.1275 8.64473 23.3275 8.79163L33.9915 15.6224C34.1914 15.7693 34.1914 15.9896 33.9248 16.1365C33.6582 16.3569 33.2583 16.3569 33.0584 16.21Z"/>
</mask>
<path d="M33.0584 16.21L22.3944 9.45266C22.1278 9.30577 22.1944 9.01196 22.461 8.86506C22.7276 8.71816 23.1275 8.64473 23.3275 8.79163L33.9915 15.6224C34.1914 15.7693 34.1914 15.9896 33.9248 16.1365C33.6582 16.3569 33.2583 16.3569 33.0584 16.21Z" fill="#2F2555" stroke="white" stroke-opacity="0.7" stroke-width="1.2" mask="url(#path-46-inside-46_1444_8934)"/>
<mask id="path-47-inside-47_1444_8934" fill="white">
<path d="M31.1251 17.3855L20.4611 10.6282C20.2611 10.4813 20.2611 10.2609 20.5277 10.0406C20.7943 9.8937 21.1942 9.8937 21.3942 10.0406L32.0581 16.7979C32.3247 16.9448 32.2581 17.2386 31.9915 17.3855C31.7249 17.5324 31.3917 17.5324 31.1251 17.3855Z"/>
</mask>
<path d="M31.1251 17.3855L20.4611 10.6282C20.2611 10.4813 20.2611 10.2609 20.5277 10.0406C20.7943 9.8937 21.1942 9.8937 21.3942 10.0406L32.0581 16.7979C32.3247 16.9448 32.2581 17.2386 31.9915 17.3855C31.7249 17.5324 31.3917 17.5324 31.1251 17.3855Z" fill="#2F2555" stroke="white" stroke-opacity="0.7" stroke-width="1.2" mask="url(#path-47-inside-47_1444_8934)"/>
<mask id="path-48-inside-48_1444_8934" fill="white">
<path d="M26.1263 6.88207C26.1707 6.88207 26.2152 6.85758 26.2596 6.80861C26.5262 6.66171 26.9261 6.58826 27.126 6.73516L37.79 13.5659C37.8345 13.5659 37.8567 13.5904 37.8567 13.6394C37.99 13.4925 37.99 13.2721 37.79 13.1987L27.126 6.36791C26.9261 6.22101 26.5262 6.29447 26.2596 6.44137C26.0597 6.58826 25.993 6.73517 26.1263 6.88207Z"/>
</mask>
<path d="M26.1263 6.88207C26.1707 6.88207 26.2152 6.85758 26.2596 6.80861C26.5262 6.66171 26.9261 6.58826 27.126 6.73516L37.79 13.5659C37.8345 13.5659 37.8567 13.5904 37.8567 13.6394C37.99 13.4925 37.99 13.2721 37.79 13.1987L27.126 6.36791C26.9261 6.22101 26.5262 6.29447 26.2596 6.44137C26.0597 6.58826 25.993 6.73517 26.1263 6.88207Z" fill="#2F2555" stroke="white" stroke-opacity="0.7" stroke-width="1.2" mask="url(#path-48-inside-48_1444_8934)"/>
<mask id="path-49-inside-49_1444_8934" fill="white">
<path d="M24.1934 8.13053C24.2378 8.08156 24.2822 8.03261 24.3267 7.98364C24.5933 7.83675 24.9932 7.83675 25.2598 7.98364L35.9238 14.741C35.9238 14.7899 35.946 14.8144 35.9904 14.8144C36.1237 14.6675 36.0571 14.5206 35.9238 14.3737L25.2598 7.6164C24.9932 7.4695 24.5933 7.4695 24.3267 7.6164C24.1267 7.7633 24.1267 7.98363 24.1934 8.13053Z"/>
</mask>
<path d="M24.1934 8.13053C24.2378 8.08156 24.2822 8.03261 24.3267 7.98364C24.5933 7.83675 24.9932 7.83675 25.2598 7.98364L35.9238 14.741C35.9238 14.7899 35.946 14.8144 35.9904 14.8144C36.1237 14.6675 36.0571 14.5206 35.9238 14.3737L25.2598 7.6164C24.9932 7.4695 24.5933 7.4695 24.3267 7.6164C24.1267 7.7633 24.1267 7.98363 24.1934 8.13053Z" fill="#2F2555" stroke="white" stroke-opacity="0.7" stroke-width="1.2" mask="url(#path-49-inside-49_1444_8934)"/>
<mask id="path-50-inside-50_1444_8934" fill="white">
<path d="M22.3273 9.30576C22.3717 9.30576 22.4162 9.28127 22.4606 9.2323C22.7272 9.0854 23.1271 9.01197 23.327 9.15887L33.991 15.9896C34.0354 15.9896 34.0577 16.0141 34.0577 16.0631C34.191 15.9162 34.191 15.6958 33.991 15.6224L23.327 8.79163C23.1271 8.64473 22.7272 8.71816 22.4606 8.86506C22.2606 9.01196 22.194 9.23231 22.3273 9.30576Z"/>
</mask>
<path d="M22.3273 9.30576C22.3717 9.30576 22.4162 9.28127 22.4606 9.2323C22.7272 9.0854 23.1271 9.01197 23.327 9.15887L33.991 15.9896C34.0354 15.9896 34.0577 16.0141 34.0577 16.0631C34.191 15.9162 34.191 15.6958 33.991 15.6224L23.327 8.79163C23.1271 8.64473 22.7272 8.71816 22.4606 8.86506C22.2606 9.01196 22.194 9.23231 22.3273 9.30576Z" fill="#2F2555" stroke="white" stroke-opacity="0.7" stroke-width="1.2" mask="url(#path-50-inside-50_1444_8934)"/>
<mask id="path-51-inside-51_1444_8934" fill="white">
<path d="M20.3948 10.5547C20.4392 10.5058 20.4837 10.4568 20.5281 10.4078C20.7947 10.2609 21.1946 10.2609 21.4612 10.4078L32.0585 17.1652C32.103 17.2141 32.1474 17.2386 32.1918 17.2386C32.2585 17.0917 32.2585 16.9448 32.0585 16.7979L21.4612 10.0406C21.1946 9.8937 20.7947 9.8937 20.5281 10.0406C20.3281 10.1875 20.2615 10.4078 20.3948 10.5547Z"/>
</mask>
<path d="M20.3948 10.5547C20.4392 10.5058 20.4837 10.4568 20.5281 10.4078C20.7947 10.2609 21.1946 10.2609 21.4612 10.4078L32.0585 17.1652C32.103 17.2141 32.1474 17.2386 32.1918 17.2386C32.2585 17.0917 32.2585 16.9448 32.0585 16.7979L21.4612 10.0406C21.1946 9.8937 20.7947 9.8937 20.5281 10.0406C20.3281 10.1875 20.2615 10.4078 20.3948 10.5547Z" fill="#2F2555" stroke="white" stroke-opacity="0.7" stroke-width="1.2" mask="url(#path-51-inside-51_1444_8934)"/>
<mask id="path-52-inside-52_1444_8934" fill="white">
<path d="M52.3194 21.2049L41.6554 14.4476C41.4555 14.3007 41.5222 14.0069 41.7221 13.86C41.9887 13.7131 42.3886 13.7131 42.6552 13.7865L53.3192 20.6173C53.5191 20.7642 53.5191 20.9845 53.2525 21.1314C52.9859 21.3518 52.586 21.3518 52.3194 21.2049Z"/>
</mask>
<path d="M52.3194 21.2049L41.6554 14.4476C41.4555 14.3007 41.5222 14.0069 41.7221 13.86C41.9887 13.7131 42.3886 13.7131 42.6552 13.7865L53.3192 20.6173C53.5191 20.7642 53.5191 20.9845 53.2525 21.1314C52.9859 21.3518 52.586 21.3518 52.3194 21.2049Z" fill="#2F2555" stroke="white" stroke-opacity="0.7" stroke-width="1.2" mask="url(#path-52-inside-52_1444_8934)"/>
<mask id="path-53-inside-53_1444_8934" fill="white">
<path d="M41.5888 14.3741C41.6332 14.3251 41.6776 14.2762 41.7221 14.2272C41.9887 14.0803 42.3885 14.0069 42.6551 14.1538L53.3191 20.9845C53.3191 20.9845 53.3414 21.009 53.3858 21.058C53.4524 20.9111 53.4524 20.6907 53.3191 20.6173L42.6551 13.7865C42.3885 13.7131 41.9887 13.7131 41.7221 13.86C41.5221 14.0069 41.4555 14.2272 41.5888 14.3741Z"/>
</mask>
<path d="M41.5888 14.3741C41.6332 14.3251 41.6776 14.2762 41.7221 14.2272C41.9887 14.0803 42.3885 14.0069 42.6551 14.1538L53.3191 20.9845C53.3191 20.9845 53.3414 21.009 53.3858 21.058C53.4524 20.9111 53.4524 20.6907 53.3191 20.6173L42.6551 13.7865C42.3885 13.7131 41.9887 13.7131 41.7221 13.86C41.5221 14.0069 41.4555 14.2272 41.5888 14.3741Z" fill="#2F2555" stroke="white" stroke-opacity="0.7" stroke-width="1.2" mask="url(#path-53-inside-53_1444_8934)"/>
<mask id="path-54-inside-54_1444_8934" fill="white">
<path d="M50.4531 22.3799L39.7891 15.6226C39.5892 15.4757 39.5892 15.2553 39.8558 15.1084C40.1224 14.8881 40.5223 14.8881 40.7223 15.035L51.3862 21.7923C51.5862 21.9392 51.5862 22.233 51.3196 22.3799C51.053 22.5268 50.6531 22.5268 50.4531 22.3799Z"/>
</mask>
<path d="M50.4531 22.3799L39.7891 15.6226C39.5892 15.4757 39.5892 15.2553 39.8558 15.1084C40.1224 14.8881 40.5223 14.8881 40.7223 15.035L51.3862 21.7923C51.5862 21.9392 51.5862 22.233 51.3196 22.3799C51.053 22.5268 50.6531 22.5268 50.4531 22.3799Z" fill="#2F2555" stroke="white" stroke-opacity="0.7" stroke-width="1.2" mask="url(#path-54-inside-54_1444_8934)"/>
<mask id="path-55-inside-55_1444_8934" fill="white">
<path d="M48.5206 23.6285L37.8566 16.8712C37.6566 16.7243 37.6566 16.4305 37.9232 16.2836C38.1898 16.1367 38.5897 16.1367 38.7897 16.2836L49.4537 23.041C49.7203 23.1879 49.6536 23.4082 49.387 23.5551C49.1204 23.7754 48.7871 23.7754 48.5206 23.6285Z"/>
</mask>
<path d="M48.5206 23.6285L37.8566 16.8712C37.6566 16.7243 37.6566 16.4305 37.9232 16.2836C38.1898 16.1367 38.5897 16.1367 38.7897 16.2836L49.4537 23.041C49.7203 23.1879 49.6536 23.4082 49.387 23.5551C49.1204 23.7754 48.7871 23.7754 48.5206 23.6285Z" fill="#2F2555" stroke="white" stroke-opacity="0.7" stroke-width="1.2" mask="url(#path-55-inside-55_1444_8934)"/>
<mask id="path-56-inside-56_1444_8934" fill="white">
<path d="M46.6544 24.8772L35.9904 18.0464C35.7238 17.8995 35.7905 17.6792 36.0571 17.5323C36.257 17.3119 36.6569 17.3119 36.9235 17.4588L47.5875 24.2162C47.7874 24.3631 47.7874 24.6568 47.5208 24.8037C47.2542 24.9506 46.8543 24.9506 46.6544 24.8772Z"/>
</mask>
<path d="M46.6544 24.8772L35.9904 18.0464C35.7238 17.8995 35.7905 17.6792 36.0571 17.5323C36.257 17.3119 36.6569 17.3119 36.9235 17.4588L47.5875 24.2162C47.7874 24.3631 47.7874 24.6568 47.5208 24.8037C47.2542 24.9506 46.8543 24.9506 46.6544 24.8772Z" fill="#2F2555" stroke="white" stroke-opacity="0.7" stroke-width="1.2" mask="url(#path-56-inside-56_1444_8934)"/>
<mask id="path-57-inside-57_1444_8934" fill="white">
<path d="M44.7216 26.0524L34.0576 19.295C33.8577 19.1481 33.8577 18.8544 34.1243 18.7075C34.3909 18.5606 34.7908 18.5606 34.9907 18.7075L45.6547 25.4648C45.8546 25.6117 45.8547 25.832 45.5881 26.0524C45.3215 26.1993 44.9216 26.1993 44.7216 26.0524Z"/>
</mask>
<path d="M44.7216 26.0524L34.0576 19.295C33.8577 19.1481 33.8577 18.8544 34.1243 18.7075C34.3909 18.5606 34.7908 18.5606 34.9907 18.7075L45.6547 25.4648C45.8546 25.6117 45.8547 25.832 45.5881 26.0524C45.3215 26.1993 44.9216 26.1993 44.7216 26.0524Z" fill="#2F2555" stroke="white" stroke-opacity="0.7" stroke-width="1.2" mask="url(#path-57-inside-57_1444_8934)"/>
<mask id="path-58-inside-58_1444_8934" fill="white">
<path d="M39.7228 15.5491C39.7672 15.5002 39.8116 15.4512 39.8561 15.4022C40.1227 15.2554 40.5226 15.2554 40.7226 15.4022L51.3865 22.1596C51.431 22.2085 51.4532 22.233 51.4532 22.233C51.5865 22.0861 51.5865 21.9392 51.3865 21.7923L40.7226 15.035C40.5226 14.8881 40.1227 14.8881 39.8561 15.1084C39.6561 15.1819 39.5895 15.4022 39.7228 15.5491Z"/>
</mask>
<path d="M39.7228 15.5491C39.7672 15.5002 39.8116 15.4512 39.8561 15.4022C40.1227 15.2554 40.5226 15.2554 40.7226 15.4022L51.3865 22.1596C51.431 22.2085 51.4532 22.233 51.4532 22.233C51.5865 22.0861 51.5865 21.9392 51.3865 21.7923L40.7226 15.035C40.5226 14.8881 40.1227 14.8881 39.8561 15.1084C39.6561 15.1819 39.5895 15.4022 39.7228 15.5491Z" fill="#2F2555" stroke="white" stroke-opacity="0.7" stroke-width="1.2" mask="url(#path-58-inside-58_1444_8934)"/>
<mask id="path-59-inside-59_1444_8934" fill="white">
<path d="M37.7897 16.7973C37.8342 16.7484 37.8786 16.6994 37.9231 16.6504C38.1897 16.5035 38.5895 16.5035 38.7895 16.577L49.4535 23.4078C49.4979 23.4078 49.5201 23.4323 49.5201 23.4812C49.6534 23.3343 49.6534 23.114 49.4535 23.0405L38.7895 16.2097C38.5895 16.1363 38.1897 16.1363 37.9231 16.2832C37.7231 16.4301 37.6564 16.6505 37.7897 16.7973Z"/>
</mask>
<path d="M37.7897 16.7973C37.8342 16.7484 37.8786 16.6994 37.9231 16.6504C38.1897 16.5035 38.5895 16.5035 38.7895 16.577L49.4535 23.4078C49.4979 23.4078 49.5201 23.4323 49.5201 23.4812C49.6534 23.3343 49.6534 23.114 49.4535 23.0405L38.7895 16.2097C38.5895 16.1363 38.1897 16.1363 37.9231 16.2832C37.7231 16.4301 37.6564 16.6505 37.7897 16.7973Z" fill="#2F2555" stroke="white" stroke-opacity="0.7" stroke-width="1.2" mask="url(#path-59-inside-59_1444_8934)"/>
<mask id="path-60-inside-60_1444_8934" fill="white">
<path d="M35.9236 17.973C35.9236 17.924 35.968 17.8995 36.0569 17.8995C36.3235 17.6792 36.7234 17.6792 36.9233 17.8261L47.5873 24.5834C47.5873 24.6324 47.6095 24.6568 47.6539 24.6568C47.7872 24.5099 47.7206 24.363 47.5873 24.2162L36.9233 17.4588C36.7234 17.3119 36.3235 17.3119 36.0569 17.5323C35.7903 17.6057 35.7903 17.8261 35.9236 17.973Z"/>
</mask>
<path d="M35.9236 17.973C35.9236 17.924 35.968 17.8995 36.0569 17.8995C36.3235 17.6792 36.7234 17.6792 36.9233 17.8261L47.5873 24.5834C47.5873 24.6324 47.6095 24.6568 47.6539 24.6568C47.7872 24.5099 47.7206 24.363 47.5873 24.2162L36.9233 17.4588C36.7234 17.3119 36.3235 17.3119 36.0569 17.5323C35.7903 17.6057 35.7903 17.8261 35.9236 17.973Z" fill="#2F2555" stroke="white" stroke-opacity="0.7" stroke-width="1.2" mask="url(#path-60-inside-60_1444_8934)"/>
<mask id="path-61-inside-61_1444_8934" fill="white">
<path d="M33.9908 19.2216C34.0352 19.1727 34.0797 19.1237 34.1241 19.0748C34.3907 18.9279 34.7906 18.9279 34.9905 19.0013L45.6545 25.8321C45.699 25.8321 45.7212 25.8566 45.7212 25.9055C45.8545 25.7586 45.8545 25.5383 45.6545 25.4648L34.9905 18.6341C34.7906 18.5606 34.3907 18.5606 34.1241 18.7075C33.9242 18.8544 33.8575 19.0747 33.9908 19.2216Z"/>
</mask>
<path d="M33.9908 19.2216C34.0352 19.1727 34.0797 19.1237 34.1241 19.0748C34.3907 18.9279 34.7906 18.9279 34.9905 19.0013L45.6545 25.8321C45.699 25.8321 45.7212 25.8566 45.7212 25.9055C45.8545 25.7586 45.8545 25.5383 45.6545 25.4648L34.9905 18.6341C34.7906 18.5606 34.3907 18.5606 34.1241 18.7075C33.9242 18.8544 33.8575 19.0747 33.9908 19.2216Z" fill="#2F2555" stroke="white" stroke-opacity="0.7" stroke-width="1.2" mask="url(#path-61-inside-61_1444_8934)"/>
<mask id="path-62-inside-62_1444_8934" fill="white">
<path d="M27.5928 19.736L16.9288 12.9052C16.7288 12.7583 16.7288 12.5379 16.9954 12.391C17.262 12.1707 17.6619 12.1707 17.9285 12.3176L28.5259 19.1483C28.7925 19.2218 28.7258 19.5156 28.5259 19.6625C28.2593 19.8094 27.8594 19.8829 27.5928 19.736Z"/>
</mask>
<path d="M27.5928 19.736L16.9288 12.9052C16.7288 12.7583 16.7288 12.5379 16.9954 12.391C17.262 12.1707 17.6619 12.1707 17.9285 12.3176L28.5259 19.1483C28.7925 19.2218 28.7258 19.5156 28.5259 19.6625C28.2593 19.8094 27.8594 19.8829 27.5928 19.736Z" fill="#2F2555" stroke="white" stroke-opacity="0.7" stroke-width="1.2" mask="url(#path-62-inside-62_1444_8934)"/>
<mask id="path-63-inside-63_1444_8934" fill="white">
<path d="M16.8615 12.8317C16.9059 12.7828 16.9503 12.7583 16.9948 12.7583C17.2614 12.5379 17.6613 12.5379 17.9279 12.6848L28.5252 19.4422C28.5696 19.4911 28.6141 19.5156 28.6585 19.5156C28.7251 19.3687 28.7252 19.2218 28.5252 19.1483L17.9279 12.3176C17.6613 12.1707 17.2614 12.1707 16.9948 12.391C16.7948 12.5379 16.7282 12.6848 16.8615 12.8317Z"/>
</mask>
<path d="M16.8615 12.8317C16.9059 12.7828 16.9503 12.7583 16.9948 12.7583C17.2614 12.5379 17.6613 12.5379 17.9279 12.6848L28.5252 19.4422C28.5696 19.4911 28.6141 19.5156 28.6585 19.5156C28.7251 19.3687 28.7252 19.2218 28.5252 19.1483L17.9279 12.3176C17.6613 12.1707 17.2614 12.1707 16.9948 12.391C16.7948 12.5379 16.7282 12.6848 16.8615 12.8317Z" fill="#2F2555" stroke="white" stroke-opacity="0.7" stroke-width="1.2" mask="url(#path-63-inside-63_1444_8934)"/>
<mask id="path-64-inside-64_1444_8934" fill="white">
<path d="M25.726 20.911L15.062 14.1537C14.7954 14.0068 14.8621 13.713 15.1287 13.5661C15.3953 13.4192 15.7952 13.4192 15.9951 13.5661L26.6591 20.3234C26.8591 20.4703 26.8591 20.6907 26.5925 20.911C26.3259 21.0579 25.926 21.0579 25.726 20.911Z"/>
</mask>
<path d="M25.726 20.911L15.062 14.1537C14.7954 14.0068 14.8621 13.713 15.1287 13.5661C15.3953 13.4192 15.7952 13.4192 15.9951 13.5661L26.6591 20.3234C26.8591 20.4703 26.8591 20.6907 26.5925 20.911C26.3259 21.0579 25.926 21.0579 25.726 20.911Z" fill="#2F2555" stroke="white" stroke-opacity="0.7" stroke-width="1.2" mask="url(#path-64-inside-64_1444_8934)"/>
<mask id="path-65-inside-65_1444_8934" fill="white">
<path d="M23.7933 22.1592L13.1293 15.3284C12.9293 15.1815 12.9293 14.9612 13.1959 14.8143C13.4625 14.5939 13.8624 14.5939 14.0624 14.7408L24.7264 21.5716C24.993 21.645 24.9263 21.9388 24.6597 22.0857C24.3931 22.2326 24.0599 22.3061 23.7933 22.1592Z"/>
</mask>
<path d="M23.7933 22.1592L13.1293 15.3284C12.9293 15.1815 12.9293 14.9612 13.1959 14.8143C13.4625 14.5939 13.8624 14.5939 14.0624 14.7408L24.7264 21.5716C24.993 21.645 24.9263 21.9388 24.6597 22.0857C24.3931 22.2326 24.0599 22.3061 23.7933 22.1592Z" fill="#2F2555" stroke="white" stroke-opacity="0.7" stroke-width="1.2" mask="url(#path-65-inside-65_1444_8934)"/>
<mask id="path-66-inside-66_1444_8934" fill="white">
<path d="M21.9276 23.3348L11.2636 16.5775C10.997 16.4306 11.0636 16.2103 11.3302 15.9899C11.5302 15.843 11.9301 15.843 12.1967 15.9899L22.8607 22.7473C23.0606 22.8942 23.0606 23.1145 22.794 23.3348C22.5274 23.4817 22.1275 23.4817 21.9276 23.3348Z"/>
</mask>
<path d="M21.9276 23.3348L11.2636 16.5775C10.997 16.4306 11.0636 16.2103 11.3302 15.9899C11.5302 15.843 11.9301 15.843 12.1967 15.9899L22.8607 22.7473C23.0606 22.8942 23.0606 23.1145 22.794 23.3348C22.5274 23.4817 22.1275 23.4817 21.9276 23.3348Z" fill="#2F2555" stroke="white" stroke-opacity="0.7" stroke-width="1.2" mask="url(#path-66-inside-66_1444_8934)"/>
<mask id="path-67-inside-67_1444_8934" fill="white">
<path d="M19.9943 24.5835L9.33033 17.7527C9.13038 17.6058 9.13038 17.3855 9.39698 17.2386C9.66358 17.0917 10.0635 17.0183 10.2634 17.1652L20.9274 23.9959C21.1274 24.1428 21.1274 24.3632 20.8608 24.5101C20.5942 24.657 20.1943 24.7304 19.9943 24.5835Z"/>
</mask>
<path d="M19.9943 24.5835L9.33033 17.7527C9.13038 17.6058 9.13038 17.3855 9.39698 17.2386C9.66358 17.0917 10.0635 17.0183 10.2634 17.1652L20.9274 23.9959C21.1274 24.1428 21.1274 24.3632 20.8608 24.5101C20.5942 24.657 20.1943 24.7304 19.9943 24.5835Z" fill="#2F2555" stroke="white" stroke-opacity="0.7" stroke-width="1.2" mask="url(#path-67-inside-67_1444_8934)"/>
<mask id="path-68-inside-68_1444_8934" fill="white">
<path d="M14.9958 14.0802C15.0402 14.0313 15.0846 13.9823 15.1291 13.9334C15.3957 13.7865 15.7956 13.7865 15.9955 13.9334L26.6595 20.6907C26.7039 20.6907 26.7261 20.7151 26.7261 20.7641C26.8594 20.6172 26.8594 20.4703 26.6595 20.3234L15.9955 13.5661C15.7956 13.4192 15.3957 13.4192 15.1291 13.5661C14.8625 13.713 14.8625 13.9333 14.9958 14.0802Z"/>
</mask>
<path d="M14.9958 14.0802C15.0402 14.0313 15.0846 13.9823 15.1291 13.9334C15.3957 13.7865 15.7956 13.7865 15.9955 13.9334L26.6595 20.6907C26.7039 20.6907 26.7261 20.7151 26.7261 20.7641C26.8594 20.6172 26.8594 20.4703 26.6595 20.3234L15.9955 13.5661C15.7956 13.4192 15.3957 13.4192 15.1291 13.5661C14.8625 13.713 14.8625 13.9333 14.9958 14.0802Z" fill="#2F2555" stroke="white" stroke-opacity="0.7" stroke-width="1.2" mask="url(#path-68-inside-68_1444_8934)"/>
<mask id="path-69-inside-69_1444_8934" fill="white">
<path d="M13.063 15.255C13.1074 15.206 13.1519 15.1815 13.1963 15.1815C13.4629 14.9612 13.8628 14.9612 14.0627 15.1081L24.7267 21.8654C24.7712 21.9143 24.7934 21.9388 24.7934 21.9388C24.9267 21.7919 24.9267 21.645 24.7267 21.5716L14.0627 14.7408C13.8628 14.5939 13.4629 14.5939 13.1963 14.8143C12.9964 14.9612 12.9297 15.1081 13.063 15.255Z"/>
</mask>
<path d="M13.063 15.255C13.1074 15.206 13.1519 15.1815 13.1963 15.1815C13.4629 14.9612 13.8628 14.9612 14.0627 15.1081L24.7267 21.8654C24.7712 21.9143 24.7934 21.9388 24.7934 21.9388C24.9267 21.7919 24.9267 21.645 24.7267 21.5716L14.0627 14.7408C13.8628 14.5939 13.4629 14.5939 13.1963 14.8143C12.9964 14.9612 12.9297 15.1081 13.063 15.255Z" fill="#2F2555" stroke="white" stroke-opacity="0.7" stroke-width="1.2" mask="url(#path-69-inside-69_1444_8934)"/>
<mask id="path-70-inside-70_1444_8934" fill="white">
<path d="M11.1968 16.5041C11.1968 16.4551 11.2412 16.4061 11.33 16.3572C11.5966 16.2103 11.9299 16.2103 12.1965 16.3572L22.8605 23.1145C22.8605 23.1145 22.8827 23.139 22.9271 23.1879C23.0604 23.041 22.9938 22.8942 22.8605 22.7473L12.1965 15.9899C11.9299 15.843 11.5966 15.843 11.33 15.9899C11.0634 16.1368 11.0635 16.3572 11.1968 16.5041Z"/>
</mask>
<path d="M11.1968 16.5041C11.1968 16.4551 11.2412 16.4061 11.33 16.3572C11.5966 16.2103 11.9299 16.2103 12.1965 16.3572L22.8605 23.1145C22.8605 23.1145 22.8827 23.139 22.9271 23.1879C23.0604 23.041 22.9938 22.8942 22.8605 22.7473L12.1965 15.9899C11.9299 15.843 11.5966 15.843 11.33 15.9899C11.0634 16.1368 11.0635 16.3572 11.1968 16.5041Z" fill="#2F2555" stroke="white" stroke-opacity="0.7" stroke-width="1.2" mask="url(#path-70-inside-70_1444_8934)"/>
<mask id="path-71-inside-71_1444_8934" fill="white">
<path d="M9.26351 17.6791C9.30794 17.6302 9.35236 17.6057 9.39679 17.6057C9.66339 17.3854 10.0633 17.3853 10.2633 17.5322L20.9272 24.2896C20.9717 24.3385 20.9939 24.363 20.9939 24.363C21.1272 24.2161 21.1272 24.0692 20.9272 23.9958L10.2633 17.165C10.0633 17.0181 9.66339 17.0181 9.39679 17.2385C9.19684 17.3854 9.13021 17.5322 9.26351 17.6791Z"/>
</mask>
<path d="M9.26351 17.6791C9.30794 17.6302 9.35236 17.6057 9.39679 17.6057C9.66339 17.3854 10.0633 17.3853 10.2633 17.5322L20.9272 24.2896C20.9717 24.3385 20.9939 24.363 20.9939 24.363C21.1272 24.2161 21.1272 24.0692 20.9272 23.9958L10.2633 17.165C10.0633 17.0181 9.66339 17.0181 9.39679 17.2385C9.19684 17.3854 9.13021 17.5322 9.26351 17.6791Z" fill="#2F2555" stroke="white" stroke-opacity="0.7" stroke-width="1.2" mask="url(#path-71-inside-71_1444_8934)"/>
<mask id="path-72-inside-72_1444_8934" fill="white">
<path d="M41.1891 28.3294L30.5252 21.572C30.3252 21.4251 30.3252 21.2048 30.5918 20.9844C30.8584 20.8375 31.2583 20.8375 31.4582 20.9844L42.1222 27.7418C42.3888 27.8887 42.3222 28.1825 42.0556 28.3294C41.789 28.4763 41.4557 28.4763 41.1891 28.3294Z"/>
</mask>
<path d="M41.1891 28.3294L30.5252 21.572C30.3252 21.4251 30.3252 21.2048 30.5918 20.9844C30.8584 20.8375 31.2583 20.8375 31.4582 20.9844L42.1222 27.7418C42.3888 27.8887 42.3222 28.1825 42.0556 28.3294C41.789 28.4763 41.4557 28.4763 41.1891 28.3294Z" fill="#2F2555" stroke="white" stroke-opacity="0.7" stroke-width="1.2" mask="url(#path-72-inside-72_1444_8934)"/>
<mask id="path-73-inside-73_1444_8934" fill="white">
<path d="M30.4589 21.4986C30.5033 21.4496 30.5477 21.4007 30.5922 21.3517C30.8588 21.2048 31.2587 21.2048 31.4586 21.3517L42.1226 28.109C42.167 28.158 42.1892 28.1825 42.1892 28.1825C42.3225 28.0356 42.3226 27.8887 42.1226 27.7418L31.4586 20.9844C31.2587 20.8375 30.8588 20.8375 30.5922 20.9844C30.3922 21.1313 30.3256 21.3517 30.4589 21.4986Z"/>
</mask>
<path d="M30.4589 21.4986C30.5033 21.4496 30.5477 21.4007 30.5922 21.3517C30.8588 21.2048 31.2587 21.2048 31.4586 21.3517L42.1226 28.109C42.167 28.158 42.1892 28.1825 42.1892 28.1825C42.3225 28.0356 42.3226 27.8887 42.1226 27.7418L31.4586 20.9844C31.2587 20.8375 30.8588 20.8375 30.5922 20.9844C30.3922 21.1313 30.3256 21.3517 30.4589 21.4986Z" fill="#2F2555" stroke="white" stroke-opacity="0.7" stroke-width="1.2" mask="url(#path-73-inside-73_1444_8934)"/>
<mask id="path-74-inside-74_1444_8934" fill="white">
<path d="M39.3234 29.5781L28.6595 22.7474C28.3929 22.6739 28.4595 22.3801 28.7261 22.2332C28.9261 22.0863 29.326 22.0129 29.5926 22.1598L40.2566 28.9906C40.4565 29.1375 40.4565 29.3578 40.1899 29.5047C39.9233 29.725 39.5234 29.725 39.3234 29.5781Z"/>
</mask>
<path d="M39.3234 29.5781L28.6595 22.7474C28.3929 22.6739 28.4595 22.3801 28.7261 22.2332C28.9261 22.0863 29.326 22.0129 29.5926 22.1598L40.2566 28.9906C40.4565 29.1375 40.4565 29.3578 40.1899 29.5047C39.9233 29.725 39.5234 29.725 39.3234 29.5781Z" fill="#2F2555" stroke="white" stroke-opacity="0.7" stroke-width="1.2" mask="url(#path-74-inside-74_1444_8934)"/>
<mask id="path-75-inside-75_1444_8934" fill="white">
<path d="M37.3902 30.7532L26.7262 23.9959C26.5263 23.849 26.5263 23.6286 26.7929 23.4083C27.0595 23.2614 27.4593 23.2614 27.6593 23.4083L38.3233 30.1656C38.5232 30.3125 38.5232 30.6063 38.2566 30.7532C37.99 30.9001 37.5902 30.9001 37.3902 30.7532Z"/>
</mask>
<path d="M37.3902 30.7532L26.7262 23.9959C26.5263 23.849 26.5263 23.6286 26.7929 23.4083C27.0595 23.2614 27.4593 23.2614 27.6593 23.4083L38.3233 30.1656C38.5232 30.3125 38.5232 30.6063 38.2566 30.7532C37.99 30.9001 37.5902 30.9001 37.3902 30.7532Z" fill="#2F2555" stroke="white" stroke-opacity="0.7" stroke-width="1.2" mask="url(#path-75-inside-75_1444_8934)"/>
<mask id="path-76-inside-76_1444_8934" fill="white">
<path d="M35.4571 32.0018L24.7932 25.2445C24.5932 25.0976 24.5932 24.8038 24.8598 24.6569C25.1264 24.51 25.5263 24.4366 25.7263 24.5835L36.3903 31.4143C36.6569 31.5612 36.5902 31.7815 36.3236 31.9284C36.1236 32.1488 35.7237 32.1487 35.4571 32.0018Z"/>
</mask>
<path d="M35.4571 32.0018L24.7932 25.2445C24.5932 25.0976 24.5932 24.8038 24.8598 24.6569C25.1264 24.51 25.5263 24.4366 25.7263 24.5835L36.3903 31.4143C36.6569 31.5612 36.5902 31.7815 36.3236 31.9284C36.1236 32.1488 35.7237 32.1487 35.4571 32.0018Z" fill="#2F2555" stroke="white" stroke-opacity="0.7" stroke-width="1.2" mask="url(#path-76-inside-76_1444_8934)"/>
<mask id="path-77-inside-77_1444_8934" fill="white">
<path d="M33.5915 33.1769L22.9275 26.4196C22.6609 26.2727 22.7275 26.0523 22.9941 25.832C23.2607 25.6851 23.594 25.6851 23.8606 25.832L34.5245 32.5893C34.7245 32.7362 34.7245 33.03 34.4579 33.1769C34.1913 33.3238 33.7914 33.3238 33.5915 33.1769Z"/>
</mask>
<path d="M33.5915 33.1769L22.9275 26.4196C22.6609 26.2727 22.7275 26.0523 22.9941 25.832C23.2607 25.6851 23.594 25.6851 23.8606 25.832L34.5245 32.5893C34.7245 32.7362 34.7245 33.03 34.4579 33.1769C34.1913 33.3238 33.7914 33.3238 33.5915 33.1769Z" fill="#2F2555" stroke="white" stroke-opacity="0.7" stroke-width="1.2" mask="url(#path-77-inside-77_1444_8934)"/>
<mask id="path-78-inside-78_1444_8934" fill="white">
<path d="M28.5921 22.6739C28.5921 22.6739 28.6366 22.6494 28.7254 22.6005C28.9254 22.4536 29.3253 22.3801 29.5919 22.527L40.2559 29.3578C40.2559 29.3578 40.2781 29.3823 40.3225 29.4312C40.4558 29.2843 40.3892 29.064 40.2559 28.9906L29.5919 22.1598C29.3253 22.0129 28.9254 22.0863 28.7254 22.2332C28.4588 22.3801 28.4588 22.527 28.5921 22.6739Z"/>
</mask>
<path d="M28.5921 22.6739C28.5921 22.6739 28.6366 22.6494 28.7254 22.6005C28.9254 22.4536 29.3253 22.3801 29.5919 22.527L40.2559 29.3578C40.2559 29.3578 40.2781 29.3823 40.3225 29.4312C40.4558 29.2843 40.3892 29.064 40.2559 28.9906L29.5919 22.1598C29.3253 22.0129 28.9254 22.0863 28.7254 22.2332C28.4588 22.3801 28.4588 22.527 28.5921 22.6739Z" fill="#2F2555" stroke="white" stroke-opacity="0.7" stroke-width="1.2" mask="url(#path-78-inside-78_1444_8934)"/>
<mask id="path-79-inside-79_1444_8934" fill="white">
<path d="M26.6594 23.9224C26.7038 23.8734 26.7482 23.8245 26.7927 23.7755C27.0593 23.6286 27.4592 23.6286 27.6591 23.7755L38.3231 30.5328C38.3675 30.5818 38.3898 30.6063 38.3898 30.6063C38.5231 30.4594 38.5231 30.3125 38.3231 30.1656L27.6591 23.4083C27.4592 23.2614 27.0593 23.2614 26.7927 23.4083C26.5927 23.5552 26.5261 23.7755 26.6594 23.9224Z"/>
</mask>
<path d="M26.6594 23.9224C26.7038 23.8734 26.7482 23.8245 26.7927 23.7755C27.0593 23.6286 27.4592 23.6286 27.6591 23.7755L38.3231 30.5328C38.3675 30.5818 38.3898 30.6063 38.3898 30.6063C38.5231 30.4594 38.5231 30.3125 38.3231 30.1656L27.6591 23.4083C27.4592 23.2614 27.0593 23.2614 26.7927 23.4083C26.5927 23.5552 26.5261 23.7755 26.6594 23.9224Z" fill="#2F2555" stroke="white" stroke-opacity="0.7" stroke-width="1.2" mask="url(#path-79-inside-79_1444_8934)"/>
<mask id="path-80-inside-80_1444_8934" fill="white">
<path d="M24.7268 25.0976C24.7713 25.0976 24.8157 25.0731 24.8601 25.0242C25.1267 24.8773 25.5266 24.8038 25.7932 24.9507L36.4572 31.7815C36.4572 31.7815 36.4794 31.806 36.5238 31.855C36.5905 31.7081 36.5905 31.4877 36.4572 31.4143L25.7932 24.5835C25.5266 24.4366 25.1267 24.51 24.8601 24.6569C24.6602 24.8038 24.5935 25.0242 24.7268 25.0976Z"/>
</mask>
<path d="M24.7268 25.0976C24.7713 25.0976 24.8157 25.0731 24.8601 25.0242C25.1267 24.8773 25.5266 24.8038 25.7932 24.9507L36.4572 31.7815C36.4572 31.7815 36.4794 31.806 36.5238 31.855C36.5905 31.7081 36.5905 31.4877 36.4572 31.4143L25.7932 24.5835C25.5266 24.4366 25.1267 24.51 24.8601 24.6569C24.6602 24.8038 24.5935 25.0242 24.7268 25.0976Z" fill="#2F2555" stroke="white" stroke-opacity="0.7" stroke-width="1.2" mask="url(#path-80-inside-80_1444_8934)"/>
<mask id="path-81-inside-81_1444_8934" fill="white">
<path d="M22.8609 26.3461C22.9054 26.2972 22.9498 26.2482 22.9942 26.1992C23.2608 26.0523 23.6607 26.0523 23.8607 26.1992L34.5246 32.9565C34.5691 33.0055 34.5913 33.03 34.5913 33.03C34.7246 32.8831 34.7246 32.7362 34.5246 32.5893L23.8607 25.832C23.6607 25.6851 23.2608 25.6851 22.9942 25.832C22.7943 25.9789 22.7276 26.1992 22.8609 26.3461Z"/>
</mask>
<path d="M22.8609 26.3461C22.9054 26.2972 22.9498 26.2482 22.9942 26.1992C23.2608 26.0523 23.6607 26.0523 23.8607 26.1992L34.5246 32.9565C34.5691 33.0055 34.5913 33.03 34.5913 33.03C34.7246 32.8831 34.7246 32.7362 34.5246 32.5893L23.8607 25.832C23.6607 25.6851 23.2608 25.6851 22.9942 25.832C22.7943 25.9789 22.7276 26.1992 22.8609 26.3461Z" fill="#2F2555" stroke="white" stroke-opacity="0.7" stroke-width="1.2" mask="url(#path-81-inside-81_1444_8934)"/>
</svg>
